%TF.GenerationSoftware,KiCad,Pcbnew,6.0.2+dfsg-1*%
%TF.CreationDate,2023-05-30T20:03:52-04:00*%
%TF.ProjectId,nabu_pizero_adapter,6e616275-5f70-4697-9a65-726f5f616461,1.0*%
%TF.SameCoordinates,Original*%
%TF.FileFunction,Legend,Top*%
%TF.FilePolarity,Positive*%
%FSLAX46Y46*%
G04 Gerber Fmt 4.6, Leading zero omitted, Abs format (unit mm)*
G04 Created by KiCad (PCBNEW 6.0.2+dfsg-1) date 2023-05-30 20:03:52*
%MOMM*%
%LPD*%
G01*
G04 APERTURE LIST*
%ADD10C,0.300000*%
%ADD11C,0.150000*%
%ADD12C,0.120000*%
%ADD13C,0.200000*%
%ADD14C,0.127000*%
%ADD15C,0.100000*%
G04 APERTURE END LIST*
D10*
X199317286Y-158847618D02*
X199317286Y-157147618D01*
X199964905Y-157147618D01*
X200126809Y-157228571D01*
X200207762Y-157309523D01*
X200288714Y-157471428D01*
X200288714Y-157714285D01*
X200207762Y-157876190D01*
X200126809Y-157957142D01*
X199964905Y-158038094D01*
X199317286Y-158038094D01*
X201017286Y-158847618D02*
X201017286Y-157714285D01*
X201017286Y-157147618D02*
X200936333Y-157228571D01*
X201017286Y-157309523D01*
X201098238Y-157228571D01*
X201017286Y-157147618D01*
X201017286Y-157309523D01*
X202960143Y-157147618D02*
X204093476Y-157147618D01*
X202960143Y-158847618D01*
X204093476Y-158847618D01*
X205388714Y-158766666D02*
X205226809Y-158847618D01*
X204903000Y-158847618D01*
X204741095Y-158766666D01*
X204660143Y-158604761D01*
X204660143Y-157957142D01*
X204741095Y-157795237D01*
X204903000Y-157714285D01*
X205226809Y-157714285D01*
X205388714Y-157795237D01*
X205469667Y-157957142D01*
X205469667Y-158119047D01*
X204660143Y-158280951D01*
X206198238Y-158847618D02*
X206198238Y-157714285D01*
X206198238Y-158038094D02*
X206279190Y-157876190D01*
X206360143Y-157795237D01*
X206522047Y-157714285D01*
X206683952Y-157714285D01*
X207493476Y-158847618D02*
X207331571Y-158766666D01*
X207250619Y-158685713D01*
X207169667Y-158523809D01*
X207169667Y-158038094D01*
X207250619Y-157876190D01*
X207331571Y-157795237D01*
X207493476Y-157714285D01*
X207736333Y-157714285D01*
X207898238Y-157795237D01*
X207979190Y-157876190D01*
X208060143Y-158038094D01*
X208060143Y-158523809D01*
X207979190Y-158685713D01*
X207898238Y-158766666D01*
X207736333Y-158847618D01*
X207493476Y-158847618D01*
X210083952Y-158847618D02*
X210083952Y-157147618D01*
X211055381Y-158847618D01*
X211055381Y-157147618D01*
X212512524Y-158766666D02*
X212350619Y-158847618D01*
X212026809Y-158847618D01*
X211864905Y-158766666D01*
X211783952Y-158604761D01*
X211783952Y-157957142D01*
X211864905Y-157795237D01*
X212026809Y-157714285D01*
X212350619Y-157714285D01*
X212512524Y-157795237D01*
X212593476Y-157957142D01*
X212593476Y-158119047D01*
X211783952Y-158280951D01*
X213079190Y-157714285D02*
X213726809Y-157714285D01*
X213322047Y-157147618D02*
X213322047Y-158604761D01*
X213403000Y-158766666D01*
X213564905Y-158847618D01*
X213726809Y-158847618D01*
X214131571Y-157714285D02*
X214455381Y-158847618D01*
X214779190Y-158038094D01*
X215103000Y-158847618D01*
X215426809Y-157714285D01*
X216317286Y-158847618D02*
X216155381Y-158766666D01*
X216074428Y-158685713D01*
X215993476Y-158523809D01*
X215993476Y-158038094D01*
X216074428Y-157876190D01*
X216155381Y-157795237D01*
X216317286Y-157714285D01*
X216560143Y-157714285D01*
X216722047Y-157795237D01*
X216803000Y-157876190D01*
X216883952Y-158038094D01*
X216883952Y-158523809D01*
X216803000Y-158685713D01*
X216722047Y-158766666D01*
X216560143Y-158847618D01*
X216317286Y-158847618D01*
X217612524Y-158847618D02*
X217612524Y-157714285D01*
X217612524Y-158038094D02*
X217693476Y-157876190D01*
X217774428Y-157795237D01*
X217936333Y-157714285D01*
X218098238Y-157714285D01*
X218664905Y-158847618D02*
X218664905Y-157147618D01*
X218826809Y-158199999D02*
X219312524Y-158847618D01*
X219312524Y-157714285D02*
X218664905Y-158361904D01*
X221255381Y-158361904D02*
X222064905Y-158361904D01*
X221093476Y-158847618D02*
X221660143Y-157147618D01*
X222226809Y-158847618D01*
X223522047Y-158847618D02*
X223522047Y-157147618D01*
X223522047Y-158766666D02*
X223360143Y-158847618D01*
X223036333Y-158847618D01*
X222874428Y-158766666D01*
X222793476Y-158685713D01*
X222712524Y-158523809D01*
X222712524Y-158038094D01*
X222793476Y-157876190D01*
X222874428Y-157795237D01*
X223036333Y-157714285D01*
X223360143Y-157714285D01*
X223522047Y-157795237D01*
X225060143Y-158847618D02*
X225060143Y-157957142D01*
X224979190Y-157795237D01*
X224817286Y-157714285D01*
X224493476Y-157714285D01*
X224331571Y-157795237D01*
X225060143Y-158766666D02*
X224898238Y-158847618D01*
X224493476Y-158847618D01*
X224331571Y-158766666D01*
X224250619Y-158604761D01*
X224250619Y-158442856D01*
X224331571Y-158280951D01*
X224493476Y-158199999D01*
X224898238Y-158199999D01*
X225060143Y-158119047D01*
X225869667Y-157714285D02*
X225869667Y-159414285D01*
X225869667Y-157795237D02*
X226031571Y-157714285D01*
X226355381Y-157714285D01*
X226517286Y-157795237D01*
X226598238Y-157876190D01*
X226679190Y-158038094D01*
X226679190Y-158523809D01*
X226598238Y-158685713D01*
X226517286Y-158766666D01*
X226355381Y-158847618D01*
X226031571Y-158847618D01*
X225869667Y-158766666D01*
X227164905Y-157714285D02*
X227812524Y-157714285D01*
X227407762Y-157147618D02*
X227407762Y-158604761D01*
X227488714Y-158766666D01*
X227650619Y-158847618D01*
X227812524Y-158847618D01*
X229026809Y-158766666D02*
X228864905Y-158847618D01*
X228541095Y-158847618D01*
X228379190Y-158766666D01*
X228298238Y-158604761D01*
X228298238Y-157957142D01*
X228379190Y-157795237D01*
X228541095Y-157714285D01*
X228864905Y-157714285D01*
X229026809Y-157795237D01*
X229107762Y-157957142D01*
X229107762Y-158119047D01*
X228298238Y-158280951D01*
X229836333Y-158847618D02*
X229836333Y-157714285D01*
X229836333Y-158038094D02*
X229917286Y-157876190D01*
X229998238Y-157795237D01*
X230160143Y-157714285D01*
X230322047Y-157714285D01*
X233074428Y-158847618D02*
X232103000Y-158847618D01*
X232588714Y-158847618D02*
X232588714Y-157147618D01*
X232426809Y-157390475D01*
X232264905Y-157552380D01*
X232103000Y-157633332D01*
X233803000Y-158685713D02*
X233883952Y-158766666D01*
X233803000Y-158847618D01*
X233722047Y-158766666D01*
X233803000Y-158685713D01*
X233803000Y-158847618D01*
X234936333Y-157147618D02*
X235098238Y-157147618D01*
X235260143Y-157228571D01*
X235341095Y-157309523D01*
X235422047Y-157471428D01*
X235503000Y-157795237D01*
X235503000Y-158199999D01*
X235422047Y-158523809D01*
X235341095Y-158685713D01*
X235260143Y-158766666D01*
X235098238Y-158847618D01*
X234936333Y-158847618D01*
X234774428Y-158766666D01*
X234693476Y-158685713D01*
X234612524Y-158523809D01*
X234531571Y-158199999D01*
X234531571Y-157795237D01*
X234612524Y-157471428D01*
X234693476Y-157309523D01*
X234774428Y-157228571D01*
X234936333Y-157147618D01*
D11*
%TO.C,R8*%
X96988333Y-102462580D02*
X96655000Y-101986390D01*
X96416904Y-102462580D02*
X96416904Y-101462580D01*
X96797857Y-101462580D01*
X96893095Y-101510200D01*
X96940714Y-101557819D01*
X96988333Y-101653057D01*
X96988333Y-101795914D01*
X96940714Y-101891152D01*
X96893095Y-101938771D01*
X96797857Y-101986390D01*
X96416904Y-101986390D01*
X97559761Y-101891152D02*
X97464523Y-101843533D01*
X97416904Y-101795914D01*
X97369285Y-101700676D01*
X97369285Y-101653057D01*
X97416904Y-101557819D01*
X97464523Y-101510200D01*
X97559761Y-101462580D01*
X97750238Y-101462580D01*
X97845476Y-101510200D01*
X97893095Y-101557819D01*
X97940714Y-101653057D01*
X97940714Y-101700676D01*
X97893095Y-101795914D01*
X97845476Y-101843533D01*
X97750238Y-101891152D01*
X97559761Y-101891152D01*
X97464523Y-101938771D01*
X97416904Y-101986390D01*
X97369285Y-102081628D01*
X97369285Y-102272104D01*
X97416904Y-102367342D01*
X97464523Y-102414961D01*
X97559761Y-102462580D01*
X97750238Y-102462580D01*
X97845476Y-102414961D01*
X97893095Y-102367342D01*
X97940714Y-102272104D01*
X97940714Y-102081628D01*
X97893095Y-101986390D01*
X97845476Y-101938771D01*
X97750238Y-101891152D01*
%TO.C,C4*%
X141260533Y-78973942D02*
X141212914Y-79021561D01*
X141070057Y-79069180D01*
X140974819Y-79069180D01*
X140831961Y-79021561D01*
X140736723Y-78926323D01*
X140689104Y-78831085D01*
X140641485Y-78640609D01*
X140641485Y-78497752D01*
X140689104Y-78307276D01*
X140736723Y-78212038D01*
X140831961Y-78116800D01*
X140974819Y-78069180D01*
X141070057Y-78069180D01*
X141212914Y-78116800D01*
X141260533Y-78164419D01*
X142117676Y-78402514D02*
X142117676Y-79069180D01*
X141879580Y-78021561D02*
X141641485Y-78735847D01*
X142260533Y-78735847D01*
%TO.C,R1*%
X105897533Y-46248580D02*
X105564200Y-45772390D01*
X105326104Y-46248580D02*
X105326104Y-45248580D01*
X105707057Y-45248580D01*
X105802295Y-45296200D01*
X105849914Y-45343819D01*
X105897533Y-45439057D01*
X105897533Y-45581914D01*
X105849914Y-45677152D01*
X105802295Y-45724771D01*
X105707057Y-45772390D01*
X105326104Y-45772390D01*
X106849914Y-46248580D02*
X106278485Y-46248580D01*
X106564200Y-46248580D02*
X106564200Y-45248580D01*
X106468961Y-45391438D01*
X106373723Y-45486676D01*
X106278485Y-45534295D01*
%TO.C,J1*%
X195526066Y-54849780D02*
X195526066Y-55564066D01*
X195478447Y-55706923D01*
X195383209Y-55802161D01*
X195240352Y-55849780D01*
X195145114Y-55849780D01*
X196526066Y-55849780D02*
X195954638Y-55849780D01*
X196240352Y-55849780D02*
X196240352Y-54849780D01*
X196145114Y-54992638D01*
X196049876Y-55087876D01*
X195954638Y-55135495D01*
%TO.C,R5*%
X96988333Y-94563180D02*
X96655000Y-94086990D01*
X96416904Y-94563180D02*
X96416904Y-93563180D01*
X96797857Y-93563180D01*
X96893095Y-93610800D01*
X96940714Y-93658419D01*
X96988333Y-93753657D01*
X96988333Y-93896514D01*
X96940714Y-93991752D01*
X96893095Y-94039371D01*
X96797857Y-94086990D01*
X96416904Y-94086990D01*
X97893095Y-93563180D02*
X97416904Y-93563180D01*
X97369285Y-94039371D01*
X97416904Y-93991752D01*
X97512142Y-93944133D01*
X97750238Y-93944133D01*
X97845476Y-93991752D01*
X97893095Y-94039371D01*
X97940714Y-94134609D01*
X97940714Y-94372704D01*
X97893095Y-94467942D01*
X97845476Y-94515561D01*
X97750238Y-94563180D01*
X97512142Y-94563180D01*
X97416904Y-94515561D01*
X97369285Y-94467942D01*
%TO.C,J5*%
X92719066Y-168720380D02*
X92719066Y-169434666D01*
X92671447Y-169577523D01*
X92576209Y-169672761D01*
X92433352Y-169720380D01*
X92338114Y-169720380D01*
X93671447Y-168720380D02*
X93195257Y-168720380D01*
X93147638Y-169196571D01*
X93195257Y-169148952D01*
X93290495Y-169101333D01*
X93528590Y-169101333D01*
X93623828Y-169148952D01*
X93671447Y-169196571D01*
X93719066Y-169291809D01*
X93719066Y-169529904D01*
X93671447Y-169625142D01*
X93623828Y-169672761D01*
X93528590Y-169720380D01*
X93290495Y-169720380D01*
X93195257Y-169672761D01*
X93147638Y-169625142D01*
%TO.C,R9*%
X118768333Y-176883180D02*
X118435000Y-176406990D01*
X118196904Y-176883180D02*
X118196904Y-175883180D01*
X118577857Y-175883180D01*
X118673095Y-175930800D01*
X118720714Y-175978419D01*
X118768333Y-176073657D01*
X118768333Y-176216514D01*
X118720714Y-176311752D01*
X118673095Y-176359371D01*
X118577857Y-176406990D01*
X118196904Y-176406990D01*
X119244523Y-176883180D02*
X119435000Y-176883180D01*
X119530238Y-176835561D01*
X119577857Y-176787942D01*
X119673095Y-176645085D01*
X119720714Y-176454609D01*
X119720714Y-176073657D01*
X119673095Y-175978419D01*
X119625476Y-175930800D01*
X119530238Y-175883180D01*
X119339761Y-175883180D01*
X119244523Y-175930800D01*
X119196904Y-175978419D01*
X119149285Y-176073657D01*
X119149285Y-176311752D01*
X119196904Y-176406990D01*
X119244523Y-176454609D01*
X119339761Y-176502228D01*
X119530238Y-176502228D01*
X119625476Y-176454609D01*
X119673095Y-176406990D01*
X119720714Y-176311752D01*
%TO.C,C2*%
X72680533Y-128046742D02*
X72632914Y-128094361D01*
X72490057Y-128141980D01*
X72394819Y-128141980D01*
X72251961Y-128094361D01*
X72156723Y-127999123D01*
X72109104Y-127903885D01*
X72061485Y-127713409D01*
X72061485Y-127570552D01*
X72109104Y-127380076D01*
X72156723Y-127284838D01*
X72251961Y-127189600D01*
X72394819Y-127141980D01*
X72490057Y-127141980D01*
X72632914Y-127189600D01*
X72680533Y-127237219D01*
X73061485Y-127237219D02*
X73109104Y-127189600D01*
X73204342Y-127141980D01*
X73442438Y-127141980D01*
X73537676Y-127189600D01*
X73585295Y-127237219D01*
X73632914Y-127332457D01*
X73632914Y-127427695D01*
X73585295Y-127570552D01*
X73013866Y-128141980D01*
X73632914Y-128141980D01*
%TO.C,D3*%
X120419904Y-108507780D02*
X120419904Y-107507780D01*
X120658000Y-107507780D01*
X120800857Y-107555400D01*
X120896095Y-107650638D01*
X120943714Y-107745876D01*
X120991333Y-107936352D01*
X120991333Y-108079209D01*
X120943714Y-108269685D01*
X120896095Y-108364923D01*
X120800857Y-108460161D01*
X120658000Y-108507780D01*
X120419904Y-108507780D01*
X121324666Y-107507780D02*
X121943714Y-107507780D01*
X121610380Y-107888733D01*
X121753238Y-107888733D01*
X121848476Y-107936352D01*
X121896095Y-107983971D01*
X121943714Y-108079209D01*
X121943714Y-108317304D01*
X121896095Y-108412542D01*
X121848476Y-108460161D01*
X121753238Y-108507780D01*
X121467523Y-108507780D01*
X121372285Y-108460161D01*
X121324666Y-108412542D01*
%TO.C,J4*%
X77797066Y-94096580D02*
X77797066Y-94810866D01*
X77749447Y-94953723D01*
X77654209Y-95048961D01*
X77511352Y-95096580D01*
X77416114Y-95096580D01*
X78701828Y-94429914D02*
X78701828Y-95096580D01*
X78463733Y-94048961D02*
X78225638Y-94763247D01*
X78844685Y-94763247D01*
%TO.C,U1*%
X85414095Y-46569380D02*
X85414095Y-47378904D01*
X85461714Y-47474142D01*
X85509333Y-47521761D01*
X85604571Y-47569380D01*
X85795047Y-47569380D01*
X85890285Y-47521761D01*
X85937904Y-47474142D01*
X85985523Y-47378904D01*
X85985523Y-46569380D01*
X86985523Y-47569380D02*
X86414095Y-47569380D01*
X86699809Y-47569380D02*
X86699809Y-46569380D01*
X86604571Y-46712238D01*
X86509333Y-46807476D01*
X86414095Y-46855095D01*
%TO.C,U3*%
X116594495Y-91546380D02*
X116594495Y-92355904D01*
X116642114Y-92451142D01*
X116689733Y-92498761D01*
X116784971Y-92546380D01*
X116975447Y-92546380D01*
X117070685Y-92498761D01*
X117118304Y-92451142D01*
X117165923Y-92355904D01*
X117165923Y-91546380D01*
X117546876Y-91546380D02*
X118165923Y-91546380D01*
X117832590Y-91927333D01*
X117975447Y-91927333D01*
X118070685Y-91974952D01*
X118118304Y-92022571D01*
X118165923Y-92117809D01*
X118165923Y-92355904D01*
X118118304Y-92451142D01*
X118070685Y-92498761D01*
X117975447Y-92546380D01*
X117689733Y-92546380D01*
X117594495Y-92498761D01*
X117546876Y-92451142D01*
%TO.C,U5*%
X87071295Y-113324380D02*
X87071295Y-114133904D01*
X87118914Y-114229142D01*
X87166533Y-114276761D01*
X87261771Y-114324380D01*
X87452247Y-114324380D01*
X87547485Y-114276761D01*
X87595104Y-114229142D01*
X87642723Y-114133904D01*
X87642723Y-113324380D01*
X88595104Y-113324380D02*
X88118914Y-113324380D01*
X88071295Y-113800571D01*
X88118914Y-113752952D01*
X88214152Y-113705333D01*
X88452247Y-113705333D01*
X88547485Y-113752952D01*
X88595104Y-113800571D01*
X88642723Y-113895809D01*
X88642723Y-114133904D01*
X88595104Y-114229142D01*
X88547485Y-114276761D01*
X88452247Y-114324380D01*
X88214152Y-114324380D01*
X88118914Y-114276761D01*
X88071295Y-114229142D01*
%TO.C,F1*%
X111274266Y-111590771D02*
X110940933Y-111590771D01*
X110940933Y-112114580D02*
X110940933Y-111114580D01*
X111417123Y-111114580D01*
X112321885Y-112114580D02*
X111750457Y-112114580D01*
X112036171Y-112114580D02*
X112036171Y-111114580D01*
X111940933Y-111257438D01*
X111845695Y-111352676D01*
X111750457Y-111400295D01*
%TO.C,J2*%
X81660466Y-30973780D02*
X81660466Y-31688066D01*
X81612847Y-31830923D01*
X81517609Y-31926161D01*
X81374752Y-31973780D01*
X81279514Y-31973780D01*
X82089038Y-31069019D02*
X82136657Y-31021400D01*
X82231895Y-30973780D01*
X82469990Y-30973780D01*
X82565228Y-31021400D01*
X82612847Y-31069019D01*
X82660466Y-31164257D01*
X82660466Y-31259495D01*
X82612847Y-31402352D01*
X82041419Y-31973780D01*
X82660466Y-31973780D01*
%TO.C,D4*%
X143737104Y-79018380D02*
X143737104Y-78018380D01*
X143975200Y-78018380D01*
X144118057Y-78066000D01*
X144213295Y-78161238D01*
X144260914Y-78256476D01*
X144308533Y-78446952D01*
X144308533Y-78589809D01*
X144260914Y-78780285D01*
X144213295Y-78875523D01*
X144118057Y-78970761D01*
X143975200Y-79018380D01*
X143737104Y-79018380D01*
X145165676Y-78351714D02*
X145165676Y-79018380D01*
X144927580Y-77970761D02*
X144689485Y-78685047D01*
X145308533Y-78685047D01*
X147000580Y-81163104D02*
X146000580Y-81163104D01*
X147000580Y-80591676D02*
X146429152Y-81020247D01*
X146000580Y-80591676D02*
X146572009Y-81163104D01*
%TO.C,R4*%
X59650333Y-131799580D02*
X59317000Y-131323390D01*
X59078904Y-131799580D02*
X59078904Y-130799580D01*
X59459857Y-130799580D01*
X59555095Y-130847200D01*
X59602714Y-130894819D01*
X59650333Y-130990057D01*
X59650333Y-131132914D01*
X59602714Y-131228152D01*
X59555095Y-131275771D01*
X59459857Y-131323390D01*
X59078904Y-131323390D01*
X60507476Y-131132914D02*
X60507476Y-131799580D01*
X60269380Y-130751961D02*
X60031285Y-131466247D01*
X60650333Y-131466247D01*
%TO.C,C3*%
X137298133Y-127970542D02*
X137250514Y-128018161D01*
X137107657Y-128065780D01*
X137012419Y-128065780D01*
X136869561Y-128018161D01*
X136774323Y-127922923D01*
X136726704Y-127827685D01*
X136679085Y-127637209D01*
X136679085Y-127494352D01*
X136726704Y-127303876D01*
X136774323Y-127208638D01*
X136869561Y-127113400D01*
X137012419Y-127065780D01*
X137107657Y-127065780D01*
X137250514Y-127113400D01*
X137298133Y-127161019D01*
X137631466Y-127065780D02*
X138250514Y-127065780D01*
X137917180Y-127446733D01*
X138060038Y-127446733D01*
X138155276Y-127494352D01*
X138202895Y-127541971D01*
X138250514Y-127637209D01*
X138250514Y-127875304D01*
X138202895Y-127970542D01*
X138155276Y-128018161D01*
X138060038Y-128065780D01*
X137774323Y-128065780D01*
X137679085Y-128018161D01*
X137631466Y-127970542D01*
%TO.C,R7*%
X97039133Y-98500180D02*
X96705800Y-98023990D01*
X96467704Y-98500180D02*
X96467704Y-97500180D01*
X96848657Y-97500180D01*
X96943895Y-97547800D01*
X96991514Y-97595419D01*
X97039133Y-97690657D01*
X97039133Y-97833514D01*
X96991514Y-97928752D01*
X96943895Y-97976371D01*
X96848657Y-98023990D01*
X96467704Y-98023990D01*
X97372466Y-97500180D02*
X98039133Y-97500180D01*
X97610561Y-98500180D01*
%TO.C,U2*%
X101028095Y-150406980D02*
X101028095Y-151216504D01*
X101075714Y-151311742D01*
X101123333Y-151359361D01*
X101218571Y-151406980D01*
X101409047Y-151406980D01*
X101504285Y-151359361D01*
X101551904Y-151311742D01*
X101599523Y-151216504D01*
X101599523Y-150406980D01*
X102028095Y-150502219D02*
X102075714Y-150454600D01*
X102170952Y-150406980D01*
X102409047Y-150406980D01*
X102504285Y-150454600D01*
X102551904Y-150502219D01*
X102599523Y-150597457D01*
X102599523Y-150692695D01*
X102551904Y-150835552D01*
X101980476Y-151406980D01*
X102599523Y-151406980D01*
%TO.C,U4*%
X126949295Y-81269580D02*
X126949295Y-82079104D01*
X126996914Y-82174342D01*
X127044533Y-82221961D01*
X127139771Y-82269580D01*
X127330247Y-82269580D01*
X127425485Y-82221961D01*
X127473104Y-82174342D01*
X127520723Y-82079104D01*
X127520723Y-81269580D01*
X128425485Y-81602914D02*
X128425485Y-82269580D01*
X128187390Y-81221961D02*
X127949295Y-81936247D01*
X128568342Y-81936247D01*
X124877580Y-123091819D02*
X125687104Y-123091819D01*
X125782342Y-123044200D01*
X125829961Y-122996580D01*
X125877580Y-122901342D01*
X125877580Y-122710866D01*
X125829961Y-122615628D01*
X125782342Y-122568009D01*
X125687104Y-122520390D01*
X124877580Y-122520390D01*
X124877580Y-122139438D02*
X124877580Y-121520390D01*
X125258533Y-121853723D01*
X125258533Y-121710866D01*
X125306152Y-121615628D01*
X125353771Y-121568009D01*
X125449009Y-121520390D01*
X125687104Y-121520390D01*
X125782342Y-121568009D01*
X125829961Y-121615628D01*
X125877580Y-121710866D01*
X125877580Y-121996580D01*
X125829961Y-122091819D01*
X125782342Y-122139438D01*
X124877580Y-121234676D02*
X125877580Y-120901342D01*
X124877580Y-120568009D01*
X124877580Y-120329914D02*
X124877580Y-119663247D01*
X125877580Y-120091819D01*
X124877580Y-119091819D02*
X124877580Y-118996580D01*
X124925200Y-118901342D01*
X124972819Y-118853723D01*
X125068057Y-118806104D01*
X125258533Y-118758485D01*
X125496628Y-118758485D01*
X125687104Y-118806104D01*
X125782342Y-118853723D01*
X125829961Y-118901342D01*
X125877580Y-118996580D01*
X125877580Y-119091819D01*
X125829961Y-119187057D01*
X125782342Y-119234676D01*
X125687104Y-119282295D01*
X125496628Y-119329914D01*
X125258533Y-119329914D01*
X125068057Y-119282295D01*
X124972819Y-119234676D01*
X124925200Y-119187057D01*
X124877580Y-119091819D01*
X125353771Y-117996580D02*
X125353771Y-118329914D01*
X125877580Y-118329914D02*
X124877580Y-118329914D01*
X124877580Y-117853723D01*
X124877580Y-116996580D02*
X124877580Y-117472771D01*
X125353771Y-117520390D01*
X125306152Y-117472771D01*
X125258533Y-117377533D01*
X125258533Y-117139438D01*
X125306152Y-117044200D01*
X125353771Y-116996580D01*
X125449009Y-116948961D01*
X125687104Y-116948961D01*
X125782342Y-116996580D01*
X125829961Y-117044200D01*
X125877580Y-117139438D01*
X125877580Y-117377533D01*
X125829961Y-117472771D01*
X125782342Y-117520390D01*
%TO.C,R10*%
X114253542Y-176832380D02*
X113920209Y-176356190D01*
X113682114Y-176832380D02*
X113682114Y-175832380D01*
X114063066Y-175832380D01*
X114158304Y-175880000D01*
X114205923Y-175927619D01*
X114253542Y-176022857D01*
X114253542Y-176165714D01*
X114205923Y-176260952D01*
X114158304Y-176308571D01*
X114063066Y-176356190D01*
X113682114Y-176356190D01*
X115205923Y-176832380D02*
X114634495Y-176832380D01*
X114920209Y-176832380D02*
X114920209Y-175832380D01*
X114824971Y-175975238D01*
X114729733Y-176070476D01*
X114634495Y-176118095D01*
X115824971Y-175832380D02*
X115920209Y-175832380D01*
X116015447Y-175880000D01*
X116063066Y-175927619D01*
X116110685Y-176022857D01*
X116158304Y-176213333D01*
X116158304Y-176451428D01*
X116110685Y-176641904D01*
X116063066Y-176737142D01*
X116015447Y-176784761D01*
X115920209Y-176832380D01*
X115824971Y-176832380D01*
X115729733Y-176784761D01*
X115682114Y-176737142D01*
X115634495Y-176641904D01*
X115586876Y-176451428D01*
X115586876Y-176213333D01*
X115634495Y-176022857D01*
X115682114Y-175927619D01*
X115729733Y-175880000D01*
X115824971Y-175832380D01*
%TO.C,D1*%
X69772304Y-81837780D02*
X69772304Y-80837780D01*
X70010400Y-80837780D01*
X70153257Y-80885400D01*
X70248495Y-80980638D01*
X70296114Y-81075876D01*
X70343733Y-81266352D01*
X70343733Y-81409209D01*
X70296114Y-81599685D01*
X70248495Y-81694923D01*
X70153257Y-81790161D01*
X70010400Y-81837780D01*
X69772304Y-81837780D01*
X71296114Y-81837780D02*
X70724685Y-81837780D01*
X71010400Y-81837780D02*
X71010400Y-80837780D01*
X70915161Y-80980638D01*
X70819923Y-81075876D01*
X70724685Y-81123495D01*
X77854095Y-88147780D02*
X77854095Y-87147780D01*
X78425523Y-88147780D02*
X77996952Y-87576352D01*
X78425523Y-87147780D02*
X77854095Y-87719209D01*
%TO.C,R11*%
X110291142Y-176781580D02*
X109957809Y-176305390D01*
X109719714Y-176781580D02*
X109719714Y-175781580D01*
X110100666Y-175781580D01*
X110195904Y-175829200D01*
X110243523Y-175876819D01*
X110291142Y-175972057D01*
X110291142Y-176114914D01*
X110243523Y-176210152D01*
X110195904Y-176257771D01*
X110100666Y-176305390D01*
X109719714Y-176305390D01*
X111243523Y-176781580D02*
X110672095Y-176781580D01*
X110957809Y-176781580D02*
X110957809Y-175781580D01*
X110862571Y-175924438D01*
X110767333Y-176019676D01*
X110672095Y-176067295D01*
X112195904Y-176781580D02*
X111624476Y-176781580D01*
X111910190Y-176781580D02*
X111910190Y-175781580D01*
X111814952Y-175924438D01*
X111719714Y-176019676D01*
X111624476Y-176067295D01*
%TO.C,R12*%
X122229142Y-176857780D02*
X121895809Y-176381590D01*
X121657714Y-176857780D02*
X121657714Y-175857780D01*
X122038666Y-175857780D01*
X122133904Y-175905400D01*
X122181523Y-175953019D01*
X122229142Y-176048257D01*
X122229142Y-176191114D01*
X122181523Y-176286352D01*
X122133904Y-176333971D01*
X122038666Y-176381590D01*
X121657714Y-176381590D01*
X123181523Y-176857780D02*
X122610095Y-176857780D01*
X122895809Y-176857780D02*
X122895809Y-175857780D01*
X122800571Y-176000638D01*
X122705333Y-176095876D01*
X122610095Y-176143495D01*
X123562476Y-175953019D02*
X123610095Y-175905400D01*
X123705333Y-175857780D01*
X123943428Y-175857780D01*
X124038666Y-175905400D01*
X124086285Y-175953019D01*
X124133904Y-176048257D01*
X124133904Y-176143495D01*
X124086285Y-176286352D01*
X123514857Y-176857780D01*
X124133904Y-176857780D01*
%TO.C,D2*%
X67359304Y-89707180D02*
X67359304Y-88707180D01*
X67597400Y-88707180D01*
X67740257Y-88754800D01*
X67835495Y-88850038D01*
X67883114Y-88945276D01*
X67930733Y-89135752D01*
X67930733Y-89278609D01*
X67883114Y-89469085D01*
X67835495Y-89564323D01*
X67740257Y-89659561D01*
X67597400Y-89707180D01*
X67359304Y-89707180D01*
X68311685Y-88802419D02*
X68359304Y-88754800D01*
X68454542Y-88707180D01*
X68692638Y-88707180D01*
X68787876Y-88754800D01*
X68835495Y-88802419D01*
X68883114Y-88897657D01*
X68883114Y-88992895D01*
X68835495Y-89135752D01*
X68264066Y-89707180D01*
X68883114Y-89707180D01*
X62664895Y-90077180D02*
X62664895Y-89077180D01*
X63236323Y-90077180D02*
X62807752Y-89505752D01*
X63236323Y-89077180D02*
X62664895Y-89648609D01*
%TO.C,C5*%
X119162533Y-87838542D02*
X119114914Y-87886161D01*
X118972057Y-87933780D01*
X118876819Y-87933780D01*
X118733961Y-87886161D01*
X118638723Y-87790923D01*
X118591104Y-87695685D01*
X118543485Y-87505209D01*
X118543485Y-87362352D01*
X118591104Y-87171876D01*
X118638723Y-87076638D01*
X118733961Y-86981400D01*
X118876819Y-86933780D01*
X118972057Y-86933780D01*
X119114914Y-86981400D01*
X119162533Y-87029019D01*
X120067295Y-86933780D02*
X119591104Y-86933780D01*
X119543485Y-87409971D01*
X119591104Y-87362352D01*
X119686342Y-87314733D01*
X119924438Y-87314733D01*
X120019676Y-87362352D01*
X120067295Y-87409971D01*
X120114914Y-87505209D01*
X120114914Y-87743304D01*
X120067295Y-87838542D01*
X120019676Y-87886161D01*
X119924438Y-87933780D01*
X119686342Y-87933780D01*
X119591104Y-87886161D01*
X119543485Y-87838542D01*
%TO.C,R2*%
X87666533Y-89102180D02*
X87333200Y-88625990D01*
X87095104Y-89102180D02*
X87095104Y-88102180D01*
X87476057Y-88102180D01*
X87571295Y-88149800D01*
X87618914Y-88197419D01*
X87666533Y-88292657D01*
X87666533Y-88435514D01*
X87618914Y-88530752D01*
X87571295Y-88578371D01*
X87476057Y-88625990D01*
X87095104Y-88625990D01*
X88047485Y-88197419D02*
X88095104Y-88149800D01*
X88190342Y-88102180D01*
X88428438Y-88102180D01*
X88523676Y-88149800D01*
X88571295Y-88197419D01*
X88618914Y-88292657D01*
X88618914Y-88387895D01*
X88571295Y-88530752D01*
X87999866Y-89102180D01*
X88618914Y-89102180D01*
%TO.C,C1*%
X72680533Y-107650542D02*
X72632914Y-107698161D01*
X72490057Y-107745780D01*
X72394819Y-107745780D01*
X72251961Y-107698161D01*
X72156723Y-107602923D01*
X72109104Y-107507685D01*
X72061485Y-107317209D01*
X72061485Y-107174352D01*
X72109104Y-106983876D01*
X72156723Y-106888638D01*
X72251961Y-106793400D01*
X72394819Y-106745780D01*
X72490057Y-106745780D01*
X72632914Y-106793400D01*
X72680533Y-106841019D01*
X73632914Y-107745780D02*
X73061485Y-107745780D01*
X73347200Y-107745780D02*
X73347200Y-106745780D01*
X73251961Y-106888638D01*
X73156723Y-106983876D01*
X73061485Y-107031495D01*
%TO.C,U6*%
X87096695Y-133847580D02*
X87096695Y-134657104D01*
X87144314Y-134752342D01*
X87191933Y-134799961D01*
X87287171Y-134847580D01*
X87477647Y-134847580D01*
X87572885Y-134799961D01*
X87620504Y-134752342D01*
X87668123Y-134657104D01*
X87668123Y-133847580D01*
X88572885Y-133847580D02*
X88382409Y-133847580D01*
X88287171Y-133895200D01*
X88239552Y-133942819D01*
X88144314Y-134085676D01*
X88096695Y-134276152D01*
X88096695Y-134657104D01*
X88144314Y-134752342D01*
X88191933Y-134799961D01*
X88287171Y-134847580D01*
X88477647Y-134847580D01*
X88572885Y-134799961D01*
X88620504Y-134752342D01*
X88668123Y-134657104D01*
X88668123Y-134419009D01*
X88620504Y-134323771D01*
X88572885Y-134276152D01*
X88477647Y-134228533D01*
X88287171Y-134228533D01*
X88191933Y-134276152D01*
X88144314Y-134323771D01*
X88096695Y-134419009D01*
%TO.C,R6*%
X96810533Y-90448380D02*
X96477200Y-89972190D01*
X96239104Y-90448380D02*
X96239104Y-89448380D01*
X96620057Y-89448380D01*
X96715295Y-89496000D01*
X96762914Y-89543619D01*
X96810533Y-89638857D01*
X96810533Y-89781714D01*
X96762914Y-89876952D01*
X96715295Y-89924571D01*
X96620057Y-89972190D01*
X96239104Y-89972190D01*
X97667676Y-89448380D02*
X97477200Y-89448380D01*
X97381961Y-89496000D01*
X97334342Y-89543619D01*
X97239104Y-89686476D01*
X97191485Y-89876952D01*
X97191485Y-90257904D01*
X97239104Y-90353142D01*
X97286723Y-90400761D01*
X97381961Y-90448380D01*
X97572438Y-90448380D01*
X97667676Y-90400761D01*
X97715295Y-90353142D01*
X97762914Y-90257904D01*
X97762914Y-90019809D01*
X97715295Y-89924571D01*
X97667676Y-89876952D01*
X97572438Y-89829333D01*
X97381961Y-89829333D01*
X97286723Y-89876952D01*
X97239104Y-89924571D01*
X97191485Y-90019809D01*
%TO.C,J3*%
X55964066Y-81186380D02*
X55964066Y-81900666D01*
X55916447Y-82043523D01*
X55821209Y-82138761D01*
X55678352Y-82186380D01*
X55583114Y-82186380D01*
X56345019Y-81186380D02*
X56964066Y-81186380D01*
X56630733Y-81567333D01*
X56773590Y-81567333D01*
X56868828Y-81614952D01*
X56916447Y-81662571D01*
X56964066Y-81757809D01*
X56964066Y-81995904D01*
X56916447Y-82091142D01*
X56868828Y-82138761D01*
X56773590Y-82186380D01*
X56487876Y-82186380D01*
X56392638Y-82138761D01*
X56345019Y-82091142D01*
%TO.C,C6*%
X82250133Y-49455342D02*
X82202514Y-49502961D01*
X82059657Y-49550580D01*
X81964419Y-49550580D01*
X81821561Y-49502961D01*
X81726323Y-49407723D01*
X81678704Y-49312485D01*
X81631085Y-49122009D01*
X81631085Y-48979152D01*
X81678704Y-48788676D01*
X81726323Y-48693438D01*
X81821561Y-48598200D01*
X81964419Y-48550580D01*
X82059657Y-48550580D01*
X82202514Y-48598200D01*
X82250133Y-48645819D01*
X83107276Y-48550580D02*
X82916800Y-48550580D01*
X82821561Y-48598200D01*
X82773942Y-48645819D01*
X82678704Y-48788676D01*
X82631085Y-48979152D01*
X82631085Y-49360104D01*
X82678704Y-49455342D01*
X82726323Y-49502961D01*
X82821561Y-49550580D01*
X83012038Y-49550580D01*
X83107276Y-49502961D01*
X83154895Y-49455342D01*
X83202514Y-49360104D01*
X83202514Y-49122009D01*
X83154895Y-49026771D01*
X83107276Y-48979152D01*
X83012038Y-48931533D01*
X82821561Y-48931533D01*
X82726323Y-48979152D01*
X82678704Y-49026771D01*
X82631085Y-49122009D01*
%TO.C,R3*%
X59675733Y-110158780D02*
X59342400Y-109682590D01*
X59104304Y-110158780D02*
X59104304Y-109158780D01*
X59485257Y-109158780D01*
X59580495Y-109206400D01*
X59628114Y-109254019D01*
X59675733Y-109349257D01*
X59675733Y-109492114D01*
X59628114Y-109587352D01*
X59580495Y-109634971D01*
X59485257Y-109682590D01*
X59104304Y-109682590D01*
X60009066Y-109158780D02*
X60628114Y-109158780D01*
X60294780Y-109539733D01*
X60437638Y-109539733D01*
X60532876Y-109587352D01*
X60580495Y-109634971D01*
X60628114Y-109730209D01*
X60628114Y-109968304D01*
X60580495Y-110063542D01*
X60532876Y-110111161D01*
X60437638Y-110158780D01*
X60151923Y-110158780D01*
X60056685Y-110111161D01*
X60009066Y-110063542D01*
D12*
%TO.C,R8*%
X108043400Y-100689400D02*
X101503400Y-100689400D01*
X101503400Y-100689400D02*
X101503400Y-103429400D01*
X100733400Y-102059400D02*
X101503400Y-102059400D01*
X108043400Y-103429400D02*
X108043400Y-100689400D01*
X101503400Y-103429400D02*
X108043400Y-103429400D01*
X108813400Y-102059400D02*
X108043400Y-102059400D01*
%TO.C,C4*%
X142033600Y-82271200D02*
X142033600Y-79531200D01*
X136793600Y-82271200D02*
X136793600Y-79531200D01*
X142033600Y-79531200D02*
X136793600Y-79531200D01*
X142033600Y-82271200D02*
X136793600Y-82271200D01*
%TO.C,R1*%
X107485000Y-56127400D02*
X107485000Y-49587400D01*
X104745000Y-49587400D02*
X104745000Y-56127400D01*
X106115000Y-48817400D02*
X106115000Y-49587400D01*
X104745000Y-56127400D02*
X107485000Y-56127400D01*
X106115000Y-56897400D02*
X106115000Y-56127400D01*
X107485000Y-49587400D02*
X104745000Y-49587400D01*
%TO.C,J1*%
X203198200Y-33158200D02*
X207678200Y-33158200D01*
X191138200Y-33158200D02*
X195078200Y-33158200D01*
X246098200Y-59718200D02*
X243498200Y-59718200D01*
X215798200Y-31358200D02*
X215798200Y-33158200D01*
X243498200Y-59718200D02*
X243498200Y-57118200D01*
X235028200Y-33158200D02*
X235028200Y-32458200D01*
X243498200Y-57118200D02*
X195178200Y-57118200D01*
X246098200Y-58448200D02*
X246098200Y-57118200D01*
X215798200Y-33158200D02*
X235028200Y-33158200D01*
X246448200Y-32458200D02*
X246448200Y-33158200D01*
X195178200Y-62318200D02*
X195178200Y-57118200D01*
X188078200Y-56778200D02*
X186878200Y-56778200D01*
X235028200Y-32458200D02*
X246448200Y-32458200D01*
X195078200Y-31358200D02*
X203198200Y-31358200D01*
X246098200Y-62318200D02*
X195178200Y-62318200D01*
X203198200Y-31358200D02*
X203198200Y-33158200D01*
X186878200Y-56778200D02*
X186878200Y-39658200D01*
X207678200Y-31358200D02*
X215798200Y-31358200D01*
X186878200Y-39658200D02*
X188078200Y-39658200D01*
X207678200Y-33158200D02*
X207678200Y-31358200D01*
X246098200Y-62318200D02*
X246098200Y-59718200D01*
X188078200Y-39658200D02*
X188078200Y-36218200D01*
X246098200Y-57118200D02*
X244768200Y-57118200D01*
X253198200Y-60218200D02*
X253198200Y-36218200D01*
X191138200Y-63278200D02*
X250138200Y-63278200D01*
X195078200Y-33158200D02*
X195078200Y-31358200D01*
X188078200Y-56778200D02*
X188078200Y-60218200D01*
X246448200Y-33158200D02*
X250138200Y-33158200D01*
X250138200Y-63278200D02*
G75*
G03*
X253198200Y-60218200I1J3059999D01*
G01*
X188078200Y-60218200D02*
G75*
G03*
X191138200Y-63278200I3059999J-1D01*
G01*
X191138200Y-33158200D02*
G75*
G03*
X188078200Y-36218200I-1J-3059999D01*
G01*
X253198200Y-36218200D02*
G75*
G03*
X250138200Y-33158200I-3059999J1D01*
G01*
%TO.C,R5*%
X100745800Y-94082200D02*
X101515800Y-94082200D01*
X108055800Y-92712200D02*
X101515800Y-92712200D01*
X101515800Y-95452200D02*
X108055800Y-95452200D01*
X108825800Y-94082200D02*
X108055800Y-94082200D01*
X108055800Y-95452200D02*
X108055800Y-92712200D01*
X101515800Y-92712200D02*
X101515800Y-95452200D01*
%TO.C,J5*%
X104731400Y-167938000D02*
X94511400Y-167938000D01*
X106001400Y-167938000D02*
X107331400Y-167938000D01*
X107331400Y-167938000D02*
X107331400Y-169268000D01*
X104731400Y-167938000D02*
X104731400Y-170598000D01*
X104731400Y-170598000D02*
X94511400Y-170598000D01*
X94511400Y-167938000D02*
X94511400Y-170598000D01*
%TO.C,R9*%
X120255200Y-172408600D02*
X120255200Y-165868600D01*
X117515200Y-165868600D02*
X117515200Y-172408600D01*
X118885200Y-173178600D02*
X118885200Y-172408600D01*
X118885200Y-165098600D02*
X118885200Y-165868600D01*
X120255200Y-165868600D02*
X117515200Y-165868600D01*
X117515200Y-172408600D02*
X120255200Y-172408600D01*
%TO.C,C2*%
X64716200Y-133839400D02*
X71393200Y-133839400D01*
X64619200Y-134039400D02*
X71393200Y-134039400D01*
X66707200Y-131199400D02*
X78959200Y-131199400D01*
X64798200Y-133679400D02*
X71393200Y-133679400D01*
X64260200Y-134919400D02*
X71393200Y-134919400D01*
X69726200Y-129360400D02*
X75940200Y-129360400D01*
X63753200Y-137800400D02*
X81913200Y-137800400D01*
X74273200Y-134199400D02*
X81120200Y-134199400D01*
X67075200Y-130879400D02*
X78591200Y-130879400D01*
X64696200Y-133879400D02*
X71393200Y-133879400D01*
X69049200Y-129640400D02*
X76617200Y-129640400D01*
X74273200Y-133359400D02*
X80692200Y-133359400D01*
X66455200Y-131439400D02*
X79211200Y-131439400D01*
X66496200Y-131399400D02*
X79170200Y-131399400D01*
X74273200Y-134439400D02*
X81223200Y-134439400D01*
X68213200Y-130079400D02*
X77453200Y-130079400D01*
X64777200Y-133719400D02*
X71393200Y-133719400D01*
X65353200Y-132759400D02*
X71393200Y-132759400D01*
X74273200Y-134599400D02*
X81288200Y-134599400D01*
X74273200Y-133479400D02*
X80760200Y-133479400D01*
X74273200Y-134639400D02*
X81303200Y-134639400D01*
X63993200Y-135839400D02*
X81673200Y-135839400D01*
X64168200Y-135199400D02*
X71393200Y-135199400D01*
X69516200Y-129440400D02*
X76150200Y-129440400D01*
X64032200Y-135679400D02*
X81634200Y-135679400D01*
X74273200Y-132879400D02*
X80394200Y-132879400D01*
X63984200Y-135879400D02*
X81682200Y-135879400D01*
X74273200Y-135279400D02*
X81523200Y-135279400D01*
X65021200Y-133279400D02*
X71393200Y-133279400D01*
X67655200Y-130439400D02*
X78011200Y-130439400D01*
X68017200Y-130199400D02*
X77649200Y-130199400D01*
X63767200Y-137400400D02*
X81899200Y-137400400D01*
X63757200Y-137640400D02*
X81909200Y-137640400D01*
X74273200Y-134479400D02*
X81240200Y-134479400D01*
X64841200Y-133599400D02*
X71393200Y-133599400D01*
X74273200Y-135399400D02*
X81558200Y-135399400D01*
X64193200Y-135119400D02*
X71393200Y-135119400D01*
X66259200Y-131639400D02*
X79407200Y-131639400D01*
X74273200Y-134839400D02*
X81378200Y-134839400D01*
X64677200Y-133919400D02*
X71393200Y-133919400D01*
X68643200Y-129839400D02*
X77023200Y-129839400D01*
X67713200Y-130399400D02*
X77953200Y-130399400D01*
X64736200Y-133799400D02*
X71393200Y-133799400D01*
X64246200Y-134959400D02*
X71393200Y-134959400D01*
X65553200Y-132479400D02*
X80113200Y-132479400D01*
X65969200Y-131959400D02*
X79697200Y-131959400D01*
X64819200Y-133639400D02*
X71393200Y-133639400D01*
X74273200Y-133679400D02*
X80868200Y-133679400D01*
X66221200Y-131679400D02*
X79445200Y-131679400D01*
X63887200Y-136359400D02*
X81779200Y-136359400D01*
X66537200Y-131359400D02*
X79129200Y-131359400D01*
X67379200Y-130639400D02*
X78287200Y-130639400D01*
X63817200Y-136839400D02*
X81849200Y-136839400D01*
X74273200Y-133799400D02*
X80930200Y-133799400D01*
X74273200Y-135319400D02*
X81535200Y-135319400D01*
X63799200Y-136999400D02*
X81867200Y-136999400D01*
X63932200Y-136119400D02*
X81734200Y-136119400D01*
X63781200Y-137199400D02*
X81885200Y-137199400D01*
X63752200Y-137920400D02*
X81914200Y-137920400D01*
X70973200Y-129000400D02*
X74693200Y-129000400D01*
X70074200Y-129240400D02*
X75592200Y-129240400D01*
X64317200Y-134759400D02*
X71393200Y-134759400D01*
X63812200Y-136879400D02*
X81854200Y-136879400D01*
X64119200Y-135359400D02*
X71393200Y-135359400D01*
X68351200Y-129999400D02*
X77315200Y-129999400D01*
X68964200Y-129680400D02*
X76702200Y-129680400D01*
X74273200Y-133719400D02*
X80889200Y-133719400D01*
X74273200Y-134999400D02*
X81433200Y-134999400D01*
X71667200Y-128880400D02*
X73999200Y-128880400D01*
X63775200Y-137280400D02*
X81891200Y-137280400D01*
X64085200Y-135479400D02*
X71393200Y-135479400D01*
X74273200Y-134119400D02*
X81084200Y-134119400D01*
X66979200Y-130959400D02*
X78687200Y-130959400D01*
X67542200Y-130519400D02*
X78124200Y-130519400D01*
X64378200Y-134599400D02*
X71393200Y-134599400D01*
X63854200Y-136559400D02*
X81812200Y-136559400D01*
X74273200Y-134959400D02*
X81420200Y-134959400D01*
X63924200Y-136159400D02*
X81742200Y-136159400D01*
X74273200Y-134759400D02*
X81349200Y-134759400D01*
X64546200Y-134199400D02*
X71393200Y-134199400D01*
X63791200Y-137079400D02*
X81875200Y-137079400D01*
X64002200Y-135799400D02*
X81664200Y-135799400D01*
X74273200Y-133639400D02*
X80847200Y-133639400D01*
X64906200Y-133479400D02*
X71393200Y-133479400D01*
X74273200Y-134079400D02*
X81066200Y-134079400D01*
X74273200Y-133039400D02*
X80498200Y-133039400D01*
X65245200Y-132919400D02*
X71393200Y-132919400D01*
X65118200Y-133119400D02*
X71393200Y-133119400D01*
X66004200Y-131919400D02*
X79662200Y-131919400D01*
X74273200Y-135559400D02*
X81603200Y-135559400D01*
X69137200Y-129600400D02*
X76529200Y-129600400D01*
X66075200Y-131839400D02*
X79591200Y-131839400D01*
X64951200Y-133399400D02*
X71393200Y-133399400D01*
X65465200Y-132599400D02*
X80201200Y-132599400D01*
X70794200Y-129040400D02*
X74872200Y-129040400D01*
X63948200Y-136039400D02*
X81718200Y-136039400D01*
X63753200Y-137880400D02*
X81913200Y-137880400D01*
X74273200Y-135079400D02*
X81460200Y-135079400D01*
X63761200Y-137520400D02*
X81905200Y-137520400D01*
X63788200Y-137119400D02*
X81878200Y-137119400D01*
X66336200Y-131559400D02*
X79330200Y-131559400D01*
X64998200Y-133319400D02*
X71393200Y-133319400D01*
X67892200Y-130279400D02*
X77774200Y-130279400D01*
X64410200Y-134519400D02*
X71393200Y-134519400D01*
X66932200Y-130999400D02*
X78734200Y-130999400D01*
X74273200Y-133879400D02*
X80970200Y-133879400D01*
X67327200Y-130679400D02*
X78339200Y-130679400D01*
X64332200Y-134719400D02*
X71393200Y-134719400D01*
X74273200Y-132959400D02*
X80447200Y-132959400D01*
X63754200Y-137760400D02*
X81912200Y-137760400D01*
X63880200Y-136399400D02*
X81786200Y-136399400D01*
X72019200Y-128840400D02*
X73647200Y-128840400D01*
X63755200Y-137720400D02*
X81911200Y-137720400D01*
X66297200Y-131599400D02*
X79369200Y-131599400D01*
X69228200Y-129560400D02*
X76438200Y-129560400D01*
X65069200Y-133199400D02*
X71393200Y-133199400D01*
X66886200Y-131039400D02*
X78780200Y-131039400D01*
X63849200Y-136599400D02*
X81817200Y-136599400D01*
X67433200Y-130599400D02*
X78233200Y-130599400D01*
X63778200Y-137240400D02*
X81888200Y-137240400D01*
X66663200Y-131239400D02*
X79003200Y-131239400D01*
X71172200Y-128960400D02*
X74494200Y-128960400D01*
X74273200Y-135599400D02*
X81613200Y-135599400D01*
X70335200Y-129160400D02*
X75331200Y-129160400D01*
X63803200Y-136959400D02*
X81863200Y-136959400D01*
X66415200Y-131479400D02*
X79251200Y-131479400D01*
X74273200Y-134879400D02*
X81392200Y-134879400D01*
X64131200Y-135319400D02*
X71393200Y-135319400D01*
X74273200Y-133159400D02*
X80573200Y-133159400D01*
X66751200Y-131159400D02*
X78915200Y-131159400D01*
X74273200Y-133239400D02*
X80621200Y-133239400D01*
X69417200Y-129480400D02*
X76249200Y-129480400D01*
X64493200Y-134319400D02*
X71393200Y-134319400D01*
X69953200Y-129280400D02*
X75713200Y-129280400D01*
X74273200Y-133119400D02*
X80548200Y-133119400D01*
X67831200Y-130319400D02*
X77835200Y-130319400D01*
X64012200Y-135759400D02*
X81654200Y-135759400D01*
X74273200Y-135239400D02*
X81511200Y-135239400D01*
X63966200Y-135959400D02*
X81700200Y-135959400D01*
X65737200Y-132239400D02*
X79929200Y-132239400D01*
X74273200Y-133839400D02*
X80950200Y-133839400D01*
X67954200Y-130239400D02*
X77712200Y-130239400D01*
X65769200Y-132199400D02*
X79897200Y-132199400D01*
X74273200Y-133959400D02*
X81009200Y-133959400D01*
X64274200Y-134879400D02*
X71393200Y-134879400D01*
X65045200Y-133239400D02*
X71393200Y-133239400D01*
X65408200Y-132679400D02*
X80258200Y-132679400D01*
X66579200Y-131319400D02*
X79087200Y-131319400D01*
X66111200Y-131799400D02*
X79555200Y-131799400D01*
X65834200Y-132119400D02*
X79832200Y-132119400D01*
X70201200Y-129200400D02*
X75465200Y-129200400D01*
X64347200Y-134679400D02*
X71393200Y-134679400D01*
X74273200Y-133559400D02*
X80804200Y-133559400D01*
X64929200Y-133439400D02*
X71393200Y-133439400D01*
X64303200Y-134799400D02*
X71393200Y-134799400D01*
X67718200Y-147679840D02*
X67718200Y-145879840D01*
X74273200Y-134519400D02*
X81256200Y-134519400D01*
X68281200Y-130039400D02*
X77385200Y-130039400D01*
X74273200Y-134159400D02*
X81102200Y-134159400D01*
X67275200Y-130719400D02*
X78391200Y-130719400D01*
X74273200Y-134799400D02*
X81363200Y-134799400D01*
X74273200Y-132799400D02*
X80341200Y-132799400D01*
X68800200Y-129759400D02*
X76866200Y-129759400D01*
X64363200Y-134639400D02*
X71393200Y-134639400D01*
X65436200Y-132639400D02*
X80230200Y-132639400D01*
X65219200Y-132959400D02*
X71393200Y-132959400D01*
X64180200Y-135159400D02*
X71393200Y-135159400D01*
X64053200Y-135599400D02*
X71393200Y-135599400D01*
X66184200Y-131719400D02*
X79482200Y-131719400D01*
X64233200Y-134999400D02*
X71393200Y-134999400D01*
X63861200Y-136519400D02*
X81805200Y-136519400D01*
X63940200Y-136079400D02*
X81726200Y-136079400D01*
X69837200Y-129320400D02*
X75829200Y-129320400D01*
X74273200Y-133999400D02*
X81028200Y-133999400D01*
X74273200Y-134399400D02*
X81207200Y-134399400D01*
X74273200Y-134239400D02*
X81138200Y-134239400D01*
X64219200Y-135039400D02*
X71393200Y-135039400D01*
X74273200Y-135359400D02*
X81547200Y-135359400D01*
X69619200Y-129400400D02*
X76047200Y-129400400D01*
X65706200Y-132279400D02*
X79960200Y-132279400D01*
X63763200Y-137480400D02*
X81903200Y-137480400D01*
X64862200Y-133559400D02*
X71393200Y-133559400D01*
X66375200Y-131519400D02*
X79291200Y-131519400D01*
X65523200Y-132519400D02*
X80143200Y-132519400D01*
X74273200Y-133519400D02*
X80782200Y-133519400D01*
X63758200Y-137600400D02*
X81908200Y-137600400D01*
X66039200Y-131879400D02*
X79627200Y-131879400D01*
X64459200Y-134399400D02*
X71393200Y-134399400D01*
X68147200Y-130119400D02*
X77519200Y-130119400D01*
X64757200Y-133759400D02*
X71393200Y-133759400D01*
X64564200Y-134159400D02*
X71393200Y-134159400D01*
X70630200Y-129080400D02*
X75036200Y-129080400D01*
X64510200Y-134279400D02*
X71393200Y-134279400D01*
X63894200Y-136319400D02*
X81772200Y-136319400D01*
X65272200Y-132879400D02*
X71393200Y-132879400D01*
X65093200Y-133159400D02*
X71393200Y-133159400D01*
X63822200Y-136799400D02*
X81844200Y-136799400D01*
X63772200Y-137320400D02*
X81894200Y-137320400D01*
X70478200Y-129120400D02*
X75188200Y-129120400D01*
X64582200Y-134119400D02*
X71393200Y-134119400D01*
X63795200Y-137039400D02*
X81871200Y-137039400D01*
X65613200Y-132399400D02*
X80053200Y-132399400D01*
X74273200Y-135039400D02*
X81447200Y-135039400D01*
X63765200Y-137440400D02*
X81901200Y-137440400D01*
X64476200Y-134359400D02*
X71393200Y-134359400D01*
X67224200Y-130759400D02*
X78442200Y-130759400D01*
X74273200Y-134039400D02*
X81047200Y-134039400D01*
X74273200Y-133199400D02*
X80597200Y-133199400D01*
X74273200Y-133759400D02*
X80909200Y-133759400D01*
X68881200Y-129720400D02*
X76785200Y-129720400D01*
X63770200Y-137360400D02*
X81896200Y-137360400D01*
X74273200Y-134919400D02*
X81406200Y-134919400D01*
X74273200Y-133439400D02*
X80737200Y-133439400D01*
X74273200Y-134559400D02*
X81272200Y-134559400D01*
X64657200Y-133959400D02*
X71393200Y-133959400D01*
X65380200Y-132719400D02*
X80286200Y-132719400D01*
X74273200Y-133079400D02*
X80523200Y-133079400D01*
X63760200Y-137560400D02*
X81906200Y-137560400D01*
X64974200Y-133359400D02*
X71393200Y-133359400D01*
X68081200Y-130159400D02*
X77585200Y-130159400D01*
X64884200Y-133519400D02*
X71393200Y-133519400D01*
X74273200Y-135119400D02*
X81473200Y-135119400D01*
X64206200Y-135079400D02*
X71393200Y-135079400D01*
X65325200Y-132799400D02*
X71393200Y-132799400D01*
X64143200Y-135279400D02*
X71393200Y-135279400D01*
X67598200Y-130479400D02*
X78068200Y-130479400D01*
X63957200Y-135999400D02*
X81709200Y-135999400D01*
X69321200Y-129520400D02*
X76345200Y-129520400D01*
X74273200Y-133319400D02*
X80668200Y-133319400D01*
X74273200Y-133919400D02*
X80989200Y-133919400D01*
X74273200Y-134359400D02*
X81190200Y-134359400D01*
X63901200Y-136279400D02*
X81765200Y-136279400D01*
X68568200Y-129879400D02*
X77098200Y-129879400D01*
X74273200Y-135199400D02*
X81498200Y-135199400D01*
X65802200Y-132159400D02*
X79864200Y-132159400D01*
X63867200Y-136479400D02*
X81799200Y-136479400D01*
X63837200Y-136679400D02*
X81829200Y-136679400D01*
X65298200Y-132839400D02*
X71393200Y-132839400D01*
X74273200Y-133399400D02*
X80715200Y-133399400D01*
X64528200Y-134239400D02*
X71393200Y-134239400D01*
X66840200Y-131079400D02*
X78826200Y-131079400D01*
X65935200Y-131999400D02*
X79731200Y-131999400D01*
X74273200Y-134319400D02*
X81173200Y-134319400D01*
X74273200Y-133279400D02*
X80645200Y-133279400D01*
X63756200Y-137680400D02*
X81910200Y-137680400D01*
X65674200Y-132319400D02*
X79992200Y-132319400D01*
X67124200Y-130839400D02*
X78542200Y-130839400D01*
X63909200Y-136239400D02*
X81757200Y-136239400D01*
X66621200Y-131279400D02*
X79045200Y-131279400D01*
X64426200Y-134479400D02*
X71393200Y-134479400D01*
X63843200Y-136639400D02*
X81823200Y-136639400D01*
X64096200Y-135439400D02*
X71393200Y-135439400D01*
X64600200Y-134079400D02*
X71393200Y-134079400D01*
X63975200Y-135919400D02*
X81691200Y-135919400D01*
X67027200Y-130919400D02*
X78639200Y-130919400D01*
X63784200Y-137159400D02*
X81882200Y-137159400D01*
X63807200Y-136919400D02*
X81859200Y-136919400D01*
X74273200Y-133599400D02*
X80825200Y-133599400D01*
X68720200Y-129799400D02*
X76946200Y-129799400D01*
X64108200Y-135399400D02*
X71393200Y-135399400D01*
X71398200Y-128920400D02*
X74268200Y-128920400D01*
X64288200Y-134839400D02*
X71393200Y-134839400D01*
X67173200Y-130799400D02*
X78493200Y-130799400D01*
X65143200Y-133079400D02*
X71393200Y-133079400D01*
X64074200Y-135519400D02*
X71393200Y-135519400D01*
X64022200Y-135719400D02*
X81644200Y-135719400D01*
X66147200Y-131759400D02*
X79519200Y-131759400D01*
X74273200Y-134679400D02*
X81319200Y-134679400D01*
X72793200Y-128800400D02*
X72873200Y-128800400D01*
X64063200Y-135559400D02*
X71393200Y-135559400D01*
X65901200Y-132039400D02*
X79765200Y-132039400D01*
X68494200Y-129919400D02*
X77172200Y-129919400D01*
X63873200Y-136439400D02*
X81793200Y-136439400D01*
X64638200Y-133999400D02*
X71393200Y-133999400D01*
X65643200Y-132359400D02*
X80023200Y-132359400D01*
X65583200Y-132439400D02*
X80083200Y-132439400D01*
X63916200Y-136199400D02*
X81750200Y-136199400D01*
X67487200Y-130559400D02*
X78179200Y-130559400D01*
X74273200Y-134719400D02*
X81334200Y-134719400D01*
X74273200Y-135159400D02*
X81486200Y-135159400D01*
X65494200Y-132559400D02*
X80172200Y-132559400D01*
X63827200Y-136759400D02*
X81839200Y-136759400D01*
X68421200Y-129959400D02*
X77245200Y-129959400D01*
X65168200Y-133039400D02*
X71393200Y-133039400D01*
X63753200Y-137840400D02*
X81913200Y-137840400D01*
X74273200Y-132759400D02*
X80313200Y-132759400D01*
X74273200Y-132839400D02*
X80368200Y-132839400D01*
X67771200Y-130359400D02*
X77895200Y-130359400D01*
X74273200Y-135479400D02*
X81581200Y-135479400D01*
X64443200Y-134439400D02*
X71393200Y-134439400D01*
X64394200Y-134559400D02*
X71393200Y-134559400D01*
X64042200Y-135639400D02*
X81624200Y-135639400D01*
X66818200Y-146779840D02*
X68618200Y-146779840D01*
X64155200Y-135239400D02*
X71393200Y-135239400D01*
X74273200Y-132919400D02*
X80421200Y-132919400D01*
X63832200Y-136719400D02*
X81834200Y-136719400D01*
X65868200Y-132079400D02*
X79798200Y-132079400D01*
X74273200Y-135439400D02*
X81570200Y-135439400D01*
X66795200Y-131119400D02*
X78871200Y-131119400D01*
X74273200Y-134279400D02*
X81156200Y-134279400D01*
X74273200Y-135519400D02*
X81592200Y-135519400D01*
X65193200Y-132999400D02*
X71393200Y-132999400D01*
X74273200Y-132999400D02*
X80473200Y-132999400D01*
X81953200Y-137920400D02*
G75*
G03*
X81953200Y-137920400I-9120000J0D01*
G01*
%TO.C,D3*%
X105745400Y-110773800D02*
X115485400Y-110773800D01*
X113940400Y-110773800D02*
X113940400Y-105333800D01*
X115485400Y-110773800D02*
X115485400Y-105333800D01*
X113820400Y-110773800D02*
X113820400Y-105333800D01*
X115485400Y-105333800D02*
X105745400Y-105333800D01*
X104835400Y-108053800D02*
X105745400Y-108053800D01*
X105745400Y-105333800D02*
X105745400Y-110773800D01*
X114060400Y-110773800D02*
X114060400Y-105333800D01*
X116395400Y-108053800D02*
X115485400Y-108053800D01*
%TO.C,J4*%
X76811400Y-97023000D02*
X76811400Y-95693000D01*
X76811400Y-95693000D02*
X78141400Y-95693000D01*
X76811400Y-98293000D02*
X76811400Y-103433000D01*
X79471400Y-98293000D02*
X79471400Y-103433000D01*
X76811400Y-103433000D02*
X79471400Y-103433000D01*
X76811400Y-98293000D02*
X79471400Y-98293000D01*
%TO.C,U1*%
X85704600Y-53847400D02*
X85704600Y-55497400D01*
X85704600Y-50197400D02*
X85704600Y-51847400D01*
X103604600Y-55497400D02*
X103604600Y-50197400D01*
X103604600Y-50197400D02*
X85704600Y-50197400D01*
X85704600Y-55497400D02*
X103604600Y-55497400D01*
X85704600Y-53847400D02*
G75*
G03*
X85704600Y-51847400I0J1000000D01*
G01*
%TO.C,U3*%
X120006400Y-93094000D02*
X118356400Y-93094000D01*
X112216400Y-93034000D02*
X112216400Y-103434000D01*
X122496400Y-93034000D02*
X112216400Y-93034000D01*
X112216400Y-103434000D02*
X122496400Y-103434000D01*
X114706400Y-93094000D02*
X114706400Y-103374000D01*
X120006400Y-103374000D02*
X120006400Y-93094000D01*
X122496400Y-103434000D02*
X122496400Y-93034000D01*
X114706400Y-103374000D02*
X120006400Y-103374000D01*
X116356400Y-93094000D02*
X114706400Y-93094000D01*
X116356400Y-93094000D02*
G75*
G03*
X118356400Y-93094000I1000000J0D01*
G01*
%TO.C,U5*%
X89683200Y-119200400D02*
X89683200Y-115600400D01*
X89671678Y-115561922D02*
G75*
G03*
X85233200Y-117400400I-1838478J-1838478D01*
G01*
X85233199Y-117400400D02*
G75*
G03*
X89671678Y-119238878I2600001J0D01*
G01*
D13*
%TO.C,F1*%
X106960400Y-112648200D02*
X114070400Y-112648200D01*
X117565400Y-114048200D02*
X118665400Y-114048200D01*
X114070400Y-112648200D02*
X114070400Y-115448200D01*
X106960400Y-114048200D02*
X105365400Y-114048200D01*
X114070400Y-115448200D02*
X106960400Y-115448200D01*
X114070400Y-114048200D02*
X115615400Y-114048200D01*
X102365400Y-114048200D02*
X103415400Y-114048200D01*
X106960400Y-115448200D02*
X106960400Y-112648200D01*
D14*
%TO.C,J2*%
X103500000Y-45968200D02*
X100000000Y-45968200D01*
X87000000Y-45968200D02*
X83500000Y-45968200D01*
X103500000Y-30168200D02*
X103500000Y-45968200D01*
X103500000Y-30168200D02*
X83500000Y-30168200D01*
X83500000Y-45968200D02*
X83500000Y-30168200D01*
D13*
X82836000Y-42762200D02*
G75*
G03*
X82836000Y-42762200I-100000J0D01*
G01*
%TO.C,G2*%
G36*
X175031345Y-158914440D02*
G01*
X175093790Y-158786391D01*
X175185504Y-158685864D01*
X175248434Y-158638731D01*
X175316359Y-158604214D01*
X175397343Y-158580551D01*
X175499451Y-158565978D01*
X175630746Y-158558732D01*
X175774840Y-158557016D01*
X176076111Y-158557016D01*
X176076111Y-158447351D01*
X176065641Y-158326970D01*
X176030971Y-158241157D01*
X175967211Y-158184452D01*
X175869472Y-158151393D01*
X175802368Y-158141607D01*
X175652410Y-158137327D01*
X175529158Y-158157153D01*
X175437965Y-158200070D01*
X175421283Y-158213844D01*
X175362217Y-158268584D01*
X175228598Y-158165766D01*
X175094979Y-158062949D01*
X175157767Y-157996836D01*
X175231049Y-157929932D01*
X175309369Y-157883061D01*
X175403028Y-157852612D01*
X175522326Y-157834974D01*
X175639977Y-157827781D01*
X175826092Y-157827721D01*
X175977129Y-157844403D01*
X176099856Y-157879597D01*
X176201041Y-157935069D01*
X176267519Y-157991699D01*
X176329116Y-158065055D01*
X176373839Y-158140588D01*
X176385432Y-158171432D01*
X176392508Y-158220144D01*
X176398528Y-158308945D01*
X176403352Y-158433489D01*
X176406842Y-158589430D01*
X176408859Y-158772423D01*
X176409320Y-158918127D01*
X176409444Y-159579238D01*
X176076111Y-159579238D01*
X176076111Y-159512571D01*
X176073859Y-159464320D01*
X176061707Y-159450390D01*
X176031560Y-159469630D01*
X175996461Y-159501249D01*
X175931793Y-159546277D01*
X175858355Y-159578356D01*
X175856428Y-159578903D01*
X175784014Y-159591168D01*
X175686808Y-159597686D01*
X175581605Y-159598392D01*
X175485199Y-159593217D01*
X175414384Y-159582095D01*
X175409444Y-159580680D01*
X175257254Y-159515619D01*
X175140945Y-159424641D01*
X175061007Y-159308383D01*
X175017929Y-159167484D01*
X175011032Y-159074144D01*
X175334874Y-159074144D01*
X175360108Y-159152240D01*
X175417688Y-159218472D01*
X175504393Y-159264048D01*
X175523290Y-159269493D01*
X175595688Y-159279477D01*
X175689271Y-159281083D01*
X175789702Y-159275396D01*
X175882644Y-159263503D01*
X175953761Y-159246491D01*
X175978990Y-159234951D01*
X176025206Y-159180982D01*
X176058153Y-159093389D01*
X176074672Y-158981828D01*
X176075987Y-158938670D01*
X176076111Y-158842545D01*
X175765442Y-158849781D01*
X175642048Y-158852965D01*
X175554849Y-158856803D01*
X175495601Y-158862800D01*
X175456064Y-158872459D01*
X175427994Y-158887284D01*
X175403150Y-158908782D01*
X175394330Y-158917521D01*
X175345208Y-158992973D01*
X175334874Y-159074144D01*
X175011032Y-159074144D01*
X175009932Y-159059255D01*
X175031345Y-158914440D01*
G37*
G36*
X178023289Y-158510209D02*
G01*
X178028769Y-158383759D01*
X178037113Y-158280921D01*
X178048324Y-158211399D01*
X178050085Y-158205002D01*
X178094492Y-158111521D01*
X178167179Y-158014865D01*
X178255494Y-157929182D01*
X178346788Y-157868618D01*
X178353889Y-157865261D01*
X178445171Y-157838491D01*
X178559463Y-157825629D01*
X178678102Y-157827050D01*
X178782426Y-157843129D01*
X178821260Y-157855878D01*
X178891982Y-157892046D01*
X178964049Y-157938370D01*
X178972644Y-157944767D01*
X179021953Y-157979961D01*
X179055930Y-157999826D01*
X179061542Y-158001460D01*
X179065970Y-157980347D01*
X179069856Y-157921444D01*
X179072982Y-157831401D01*
X179075131Y-157716872D01*
X179076083Y-157584510D01*
X179076111Y-157557016D01*
X179076111Y-157112571D01*
X179409444Y-157112571D01*
X179409444Y-159579238D01*
X179076111Y-159579238D01*
X179076111Y-159501460D01*
X179073596Y-159450018D01*
X179067414Y-159424342D01*
X179066114Y-159423683D01*
X179043490Y-159434932D01*
X178996452Y-159463736D01*
X178960558Y-159487081D01*
X178887615Y-159530469D01*
X178814822Y-159566128D01*
X178789462Y-159575970D01*
X178701513Y-159593334D01*
X178591247Y-159598290D01*
X178478969Y-159591016D01*
X178387222Y-159572408D01*
X178310450Y-159532470D01*
X178226499Y-159464449D01*
X178147038Y-159380511D01*
X178083739Y-159292820D01*
X178050393Y-159221282D01*
X178038749Y-159156963D01*
X178029952Y-159058026D01*
X178024005Y-158934178D01*
X178020910Y-158795123D01*
X178020735Y-158689502D01*
X178365124Y-158689502D01*
X178367299Y-158801668D01*
X178373091Y-158906353D01*
X178381559Y-158990334D01*
X178389570Y-159033511D01*
X178427301Y-159114893D01*
X178487110Y-159188225D01*
X178556230Y-159239724D01*
X178593587Y-159253749D01*
X178680029Y-159260666D01*
X178777786Y-159251126D01*
X178867125Y-159228226D01*
X178918813Y-159202701D01*
X178975759Y-159148416D01*
X179016545Y-159074794D01*
X179043012Y-158975472D01*
X179056998Y-158844086D01*
X179060433Y-158712571D01*
X179053912Y-158537343D01*
X179031809Y-158400697D01*
X178991862Y-158298815D01*
X178931814Y-158227878D01*
X178849403Y-158184068D01*
X178742370Y-158163567D01*
X178735175Y-158162999D01*
X178611932Y-158169890D01*
X178514554Y-158212029D01*
X178439586Y-158291258D01*
X178415000Y-158333947D01*
X178392631Y-158384061D01*
X178378027Y-158435659D01*
X178369623Y-158499896D01*
X178365853Y-158587928D01*
X178365124Y-158689502D01*
X178020735Y-158689502D01*
X178020670Y-158650565D01*
X178023289Y-158510209D01*
G37*
G36*
X180142374Y-158434794D02*
G01*
X180185516Y-158591784D01*
X180225394Y-158733845D01*
X180260427Y-158855591D01*
X180289037Y-158951633D01*
X180309642Y-159016586D01*
X180320664Y-159045061D01*
X180321576Y-159045905D01*
X180332610Y-159025199D01*
X180355675Y-158965199D01*
X180389702Y-158869080D01*
X180433618Y-158740015D01*
X180486352Y-158581179D01*
X180546834Y-158395747D01*
X180613993Y-158186894D01*
X180657110Y-158051460D01*
X180729370Y-157823683D01*
X180979185Y-157823683D01*
X181076192Y-158129238D01*
X181158450Y-158386803D01*
X181228236Y-158602003D01*
X181285642Y-158775104D01*
X181330758Y-158906371D01*
X181363676Y-158996073D01*
X181384487Y-159044474D01*
X181392816Y-159053195D01*
X181401112Y-159027739D01*
X181419391Y-158964998D01*
X181446078Y-158870603D01*
X181479595Y-158750182D01*
X181518367Y-158609367D01*
X181560817Y-158453787D01*
X181567421Y-158429464D01*
X181731667Y-157824134D01*
X181917377Y-157823908D01*
X182012318Y-157825542D01*
X182068619Y-157831321D01*
X182091969Y-157842142D01*
X182092515Y-157851460D01*
X182083408Y-157878765D01*
X182062548Y-157943140D01*
X182031633Y-158039295D01*
X181992357Y-158161941D01*
X181946415Y-158305787D01*
X181895504Y-158465542D01*
X181866398Y-158557016D01*
X181810776Y-158731808D01*
X181756800Y-158901223D01*
X181706662Y-159058393D01*
X181662557Y-159196447D01*
X181626678Y-159308516D01*
X181601219Y-159387730D01*
X181594681Y-159407946D01*
X181538508Y-159581099D01*
X181227142Y-159568127D01*
X181176083Y-159401460D01*
X181152455Y-159323779D01*
X181119470Y-159214581D01*
X181080463Y-159084940D01*
X181038768Y-158945933D01*
X181008846Y-158845905D01*
X180970237Y-158717606D01*
X180934568Y-158600813D01*
X180904326Y-158503535D01*
X180881998Y-158433785D01*
X180870842Y-158401460D01*
X180862954Y-158390251D01*
X180852562Y-158395377D01*
X180838253Y-158420684D01*
X180818614Y-158470019D01*
X180792232Y-158547229D01*
X180757692Y-158656159D01*
X180713582Y-158800657D01*
X180666703Y-158957016D01*
X180484388Y-159568127D01*
X180167286Y-159581139D01*
X180135302Y-159474633D01*
X180121072Y-159428636D01*
X180095898Y-159348711D01*
X180061637Y-159240655D01*
X180020146Y-159110267D01*
X179973283Y-158963345D01*
X179922904Y-158805688D01*
X179870868Y-158643095D01*
X179819031Y-158481363D01*
X179769250Y-158326291D01*
X179723384Y-158183677D01*
X179683288Y-158059320D01*
X179650822Y-157959018D01*
X179627841Y-157888569D01*
X179616203Y-157853772D01*
X179615534Y-157851944D01*
X179621008Y-157837478D01*
X179654911Y-157828618D01*
X179723219Y-157824396D01*
X179790411Y-157823683D01*
X179976133Y-157823683D01*
X180142374Y-158434794D01*
G37*
G36*
X177772063Y-155069441D02*
G01*
X177910591Y-155147119D01*
X177966198Y-155193620D01*
X178012884Y-155238955D01*
X178050531Y-155282066D01*
X178080112Y-155328207D01*
X178102594Y-155382632D01*
X178118950Y-155450594D01*
X178130148Y-155537348D01*
X178137160Y-155648147D01*
X178140955Y-155788246D01*
X178142503Y-155962898D01*
X178142778Y-156149863D01*
X178142778Y-156801460D01*
X177809444Y-156801460D01*
X177809444Y-156230699D01*
X177809232Y-156055039D01*
X177808321Y-155917852D01*
X177806298Y-155813166D01*
X177802750Y-155735010D01*
X177797264Y-155677413D01*
X177789429Y-155634404D01*
X177778830Y-155600011D01*
X177765056Y-155568264D01*
X177763423Y-155564870D01*
X177695764Y-155466934D01*
X177604361Y-155405855D01*
X177486917Y-155380256D01*
X177453889Y-155379238D01*
X177327542Y-155397195D01*
X177227317Y-155450578D01*
X177154441Y-155538658D01*
X177140642Y-155566006D01*
X177127843Y-155598199D01*
X177117951Y-155635408D01*
X177110592Y-155683530D01*
X177105395Y-155748463D01*
X177101988Y-155836106D01*
X177099999Y-155952357D01*
X177099056Y-156103115D01*
X177098821Y-156229238D01*
X177098333Y-156801460D01*
X176765000Y-156801460D01*
X176765000Y-155045905D01*
X177098333Y-155045905D01*
X177098333Y-155227417D01*
X177181667Y-155161555D01*
X177321141Y-155077548D01*
X177470555Y-155034378D01*
X177623123Y-155031768D01*
X177772063Y-155069441D01*
G37*
G36*
X175064286Y-155505640D02*
G01*
X175137686Y-155344068D01*
X175163158Y-155304137D01*
X175268380Y-155188041D01*
X175397760Y-155103508D01*
X175543869Y-155050836D01*
X175699280Y-155030322D01*
X175856563Y-155042264D01*
X176008289Y-155086959D01*
X176147032Y-155164704D01*
X176252357Y-155260550D01*
X176333482Y-155369912D01*
X176388184Y-155488042D01*
X176419739Y-155625238D01*
X176431421Y-155791798D01*
X176431667Y-155824516D01*
X176431667Y-156045905D01*
X175342778Y-156045905D01*
X175342902Y-156095905D01*
X175362325Y-156209207D01*
X175414659Y-156315092D01*
X175491841Y-156403215D01*
X175585811Y-156463228D01*
X175642700Y-156480690D01*
X175797341Y-156488569D01*
X175947961Y-156456517D01*
X176053243Y-156406101D01*
X176163482Y-156337573D01*
X176285957Y-156440548D01*
X176348649Y-156494640D01*
X176381773Y-156529403D01*
X176390447Y-156553296D01*
X176379792Y-156574777D01*
X176372391Y-156583349D01*
X176261844Y-156675624D01*
X176121465Y-156747281D01*
X175962113Y-156795576D01*
X175794646Y-156817766D01*
X175629922Y-156811108D01*
X175541208Y-156793297D01*
X175376858Y-156729875D01*
X175243188Y-156635909D01*
X175139312Y-156510259D01*
X175064342Y-156351786D01*
X175017390Y-156159351D01*
X175010720Y-156112252D01*
X174999190Y-155898285D01*
X175009868Y-155779238D01*
X175342778Y-155779238D01*
X176103279Y-155779238D01*
X176087855Y-155695905D01*
X176048601Y-155561078D01*
X175985949Y-155462954D01*
X175896995Y-155398799D01*
X175778835Y-155365879D01*
X175732612Y-155361384D01*
X175648205Y-155359625D01*
X175588902Y-155369614D01*
X175536067Y-155395206D01*
X175520555Y-155405248D01*
X175454203Y-155467570D01*
X175396031Y-155553096D01*
X175355740Y-155644802D01*
X175342778Y-155717280D01*
X175342778Y-155779238D01*
X175009868Y-155779238D01*
X175017583Y-155693230D01*
X175064286Y-155505640D01*
G37*
G36*
X173698333Y-155045905D02*
G01*
X173698333Y-155223389D01*
X173797787Y-155147474D01*
X173932236Y-155071013D01*
X174077953Y-155033444D01*
X174226975Y-155033594D01*
X174371333Y-155070288D01*
X174503062Y-155142354D01*
X174614196Y-155248617D01*
X174630599Y-155270180D01*
X174670216Y-155334277D01*
X174699991Y-155407084D01*
X174720900Y-155495170D01*
X174733919Y-155605100D01*
X174740024Y-155743443D01*
X174740189Y-155916766D01*
X174738787Y-155998492D01*
X174735092Y-156145452D01*
X174730469Y-156255830D01*
X174724053Y-156337490D01*
X174714978Y-156398293D01*
X174702381Y-156446103D01*
X174685396Y-156488782D01*
X174684680Y-156490349D01*
X174607797Y-156609000D01*
X174500017Y-156708409D01*
X174374135Y-156777487D01*
X174340068Y-156789095D01*
X174193181Y-156819100D01*
X174060888Y-156814032D01*
X173931779Y-156772020D01*
X173810599Y-156702237D01*
X173698333Y-156626688D01*
X173698333Y-158003722D01*
X173771752Y-157947723D01*
X173888848Y-157875412D01*
X174013708Y-157835689D01*
X174159923Y-157823683D01*
X174319881Y-157842645D01*
X174460812Y-157897799D01*
X174576871Y-157986548D01*
X174609238Y-158023422D01*
X174645619Y-158071508D01*
X174674733Y-158117720D01*
X174697385Y-158167575D01*
X174714381Y-158226590D01*
X174726527Y-158300282D01*
X174734629Y-158394168D01*
X174739493Y-158513765D01*
X174741925Y-158664591D01*
X174742730Y-158852162D01*
X174742778Y-158937588D01*
X174742778Y-159579238D01*
X174412716Y-159579238D01*
X174405525Y-158995905D01*
X174402962Y-158815078D01*
X174399999Y-158673166D01*
X174396250Y-158564640D01*
X174391327Y-158483972D01*
X174384844Y-158425631D01*
X174376414Y-158384089D01*
X174365650Y-158353817D01*
X174359780Y-158342101D01*
X174288700Y-158252402D01*
X174196234Y-158192971D01*
X174091545Y-158163924D01*
X173983798Y-158165378D01*
X173882157Y-158197452D01*
X173795786Y-158260262D01*
X173743077Y-158334207D01*
X173729417Y-158363771D01*
X173718847Y-158396236D01*
X173710974Y-158437446D01*
X173705405Y-158493246D01*
X173701750Y-158569477D01*
X173699615Y-158671985D01*
X173698607Y-158806611D01*
X173698335Y-158979200D01*
X173698333Y-159000575D01*
X173698333Y-159579238D01*
X173342778Y-159579238D01*
X173342778Y-155923277D01*
X173699895Y-155923277D01*
X173699994Y-156040918D01*
X173706284Y-156143458D01*
X173718437Y-156215815D01*
X173757679Y-156313570D01*
X173814174Y-156393815D01*
X173878658Y-156443705D01*
X173884736Y-156446348D01*
X173957897Y-156462422D01*
X174052129Y-156465952D01*
X174147339Y-156457693D01*
X174223435Y-156438398D01*
X174234718Y-156433216D01*
X174299240Y-156383843D01*
X174346253Y-156308949D01*
X174377268Y-156203910D01*
X174393795Y-156064101D01*
X174397588Y-155934794D01*
X174391258Y-155756299D01*
X174369673Y-155616827D01*
X174330687Y-155512933D01*
X174272151Y-155441171D01*
X174191917Y-155398096D01*
X174087837Y-155380264D01*
X174051266Y-155379321D01*
X173923940Y-155396755D01*
X173824250Y-155448659D01*
X173752764Y-155534731D01*
X173750239Y-155539366D01*
X173731159Y-155598580D01*
X173716036Y-155690225D01*
X173705428Y-155802419D01*
X173699895Y-155923277D01*
X173342778Y-155923277D01*
X173342778Y-155045905D01*
X173698333Y-155045905D01*
G37*
G36*
X182210992Y-158809726D02*
G01*
X182300619Y-158696929D01*
X182424093Y-158609741D01*
X182465000Y-158590328D01*
X182501994Y-158582891D01*
X182574510Y-158575068D01*
X182673641Y-158567585D01*
X182790476Y-158561171D01*
X182853889Y-158558551D01*
X183198333Y-158545905D01*
X183204403Y-158445905D01*
X183196781Y-158329654D01*
X183157235Y-158241721D01*
X183084549Y-158181203D01*
X182977504Y-158147194D01*
X182834882Y-158138788D01*
X182793470Y-158140584D01*
X182697241Y-158149767D01*
X182630135Y-158166212D01*
X182576930Y-158194213D01*
X182560311Y-158206348D01*
X182487571Y-158262443D01*
X182357843Y-158162620D01*
X182228115Y-158062796D01*
X182300969Y-157987630D01*
X182386853Y-157916393D01*
X182488648Y-157867133D01*
X182613622Y-157837824D01*
X182769044Y-157826439D01*
X182876111Y-157827253D01*
X182991389Y-157831666D01*
X183074635Y-157838492D01*
X183138260Y-157850098D01*
X183194675Y-157868855D01*
X183256293Y-157897128D01*
X183265000Y-157901460D01*
X183383910Y-157977695D01*
X183466168Y-158072056D01*
X183518300Y-158192153D01*
X183520199Y-158198846D01*
X183526169Y-158242495D01*
X183531494Y-158324570D01*
X183535989Y-158439056D01*
X183539470Y-158579937D01*
X183541751Y-158741197D01*
X183542648Y-158916820D01*
X183542654Y-158929238D01*
X183542778Y-159579238D01*
X183209444Y-159579238D01*
X183209444Y-159512571D01*
X183203654Y-159461857D01*
X183183687Y-159449884D01*
X183145651Y-159476168D01*
X183120524Y-159501494D01*
X183061716Y-159546402D01*
X182991470Y-159578405D01*
X182988872Y-159579148D01*
X182894088Y-159594666D01*
X182774805Y-159599116D01*
X182649432Y-159593005D01*
X182536382Y-159576842D01*
X182491003Y-159565389D01*
X182391782Y-159518324D01*
X182297110Y-159444852D01*
X182219278Y-159356789D01*
X182170577Y-159265953D01*
X182166790Y-159253711D01*
X182141917Y-159092922D01*
X182144407Y-159068822D01*
X182453889Y-159068822D01*
X182472298Y-159123431D01*
X182519297Y-159183014D01*
X182582537Y-159235236D01*
X182649675Y-159267760D01*
X182654208Y-159268982D01*
X182729847Y-159279373D01*
X182827203Y-159281197D01*
X182929475Y-159275363D01*
X183019860Y-159262782D01*
X183078105Y-159246015D01*
X183129757Y-159213181D01*
X183164457Y-159164392D01*
X183186909Y-159089891D01*
X183200625Y-158991895D01*
X183215582Y-158845905D01*
X182921497Y-158845905D01*
X182792079Y-158847073D01*
X182698882Y-158851141D01*
X182633729Y-158858960D01*
X182588443Y-158871375D01*
X182564767Y-158882911D01*
X182496335Y-158945698D01*
X182458458Y-159028343D01*
X182453889Y-159068822D01*
X182144407Y-159068822D01*
X182157371Y-158943325D01*
X182210992Y-158809726D01*
G37*
G36*
X185256080Y-155030911D02*
G01*
X185330053Y-155046300D01*
X185411036Y-155072999D01*
X185484680Y-155105142D01*
X185536638Y-155136864D01*
X185550281Y-155151178D01*
X185541271Y-155174274D01*
X185508156Y-155221154D01*
X185457248Y-155283202D01*
X185435122Y-155308329D01*
X185309444Y-155448462D01*
X185235290Y-155411258D01*
X185149235Y-155386546D01*
X185047035Y-155383421D01*
X184947723Y-155400576D01*
X184870882Y-155436290D01*
X184831494Y-155467074D01*
X184800309Y-155497781D01*
X184776295Y-155533845D01*
X184758418Y-155580700D01*
X184745648Y-155643780D01*
X184736952Y-155728520D01*
X184731298Y-155840353D01*
X184727653Y-155984714D01*
X184724987Y-156167036D01*
X184724498Y-156207016D01*
X184717330Y-156801460D01*
X184387222Y-156801460D01*
X184387222Y-155045905D01*
X184720555Y-155045905D01*
X184720555Y-155134794D01*
X184723604Y-155190478D01*
X184731219Y-155221429D01*
X184734288Y-155223683D01*
X184757827Y-155210275D01*
X184801263Y-155176434D01*
X184823276Y-155157608D01*
X184920379Y-155095475D01*
X185042048Y-155050942D01*
X185170139Y-155029319D01*
X185256080Y-155030911D01*
G37*
G36*
X180272473Y-141846226D02*
G01*
X180464247Y-141847259D01*
X180618226Y-141849106D01*
X180737732Y-141851871D01*
X180826087Y-141855655D01*
X180886613Y-141860562D01*
X180922634Y-141866695D01*
X180937127Y-141873683D01*
X180945991Y-141901183D01*
X180961666Y-141967439D01*
X180983137Y-142067457D01*
X181009388Y-142196240D01*
X181039403Y-142348796D01*
X181072167Y-142520130D01*
X181106662Y-142705247D01*
X181110050Y-142723683D01*
X181144664Y-142910993D01*
X181177458Y-143086007D01*
X181207428Y-143243552D01*
X181233571Y-143378452D01*
X181254883Y-143485534D01*
X181270360Y-143559624D01*
X181278999Y-143595546D01*
X181279347Y-143596567D01*
X181285460Y-143612010D01*
X181294395Y-143626044D01*
X181310360Y-143640671D01*
X181337564Y-143657894D01*
X181380214Y-143679716D01*
X181442517Y-143708139D01*
X181528682Y-143745168D01*
X181642916Y-143792803D01*
X181789428Y-143853049D01*
X181972424Y-143927908D01*
X181993997Y-143936726D01*
X182133928Y-143993001D01*
X182262735Y-144043062D01*
X182373894Y-144084512D01*
X182460883Y-144114955D01*
X182517179Y-144131996D01*
X182533173Y-144134794D01*
X182567241Y-144121866D01*
X182635642Y-144083751D01*
X182736803Y-144021454D01*
X182869150Y-143935980D01*
X183031109Y-143828331D01*
X183221107Y-143699513D01*
X183299334Y-143645905D01*
X183458304Y-143537337D01*
X183606859Y-143437145D01*
X183740802Y-143348065D01*
X183855936Y-143272832D01*
X183948065Y-143214183D01*
X184012991Y-143174855D01*
X184046517Y-143157584D01*
X184049198Y-143157016D01*
X184073996Y-143172373D01*
X184125323Y-143215645D01*
X184198986Y-143282633D01*
X184290790Y-143369138D01*
X184396541Y-143470960D01*
X184512043Y-143583901D01*
X184633104Y-143703760D01*
X184755527Y-143826339D01*
X184875119Y-143947439D01*
X184987685Y-144062861D01*
X185089031Y-144168405D01*
X185174962Y-144259872D01*
X185241283Y-144333063D01*
X185283801Y-144383779D01*
X185298333Y-144407555D01*
X185286128Y-144435345D01*
X185251642Y-144494563D01*
X185198071Y-144580223D01*
X185128609Y-144687334D01*
X185046453Y-144810907D01*
X184954798Y-144945955D01*
X184935491Y-144974073D01*
X184794398Y-145179258D01*
X184676539Y-145351007D01*
X184579884Y-145492450D01*
X184502403Y-145606715D01*
X184442063Y-145696933D01*
X184396836Y-145766233D01*
X184364690Y-145817744D01*
X184343595Y-145854595D01*
X184331521Y-145879915D01*
X184326437Y-145896835D01*
X184326312Y-145908484D01*
X184327037Y-145911794D01*
X184337795Y-145940348D01*
X184363708Y-146004331D01*
X184402508Y-146098287D01*
X184451926Y-146216759D01*
X184509693Y-146354289D01*
X184573540Y-146505421D01*
X184589491Y-146543050D01*
X184668673Y-146727077D01*
X184738154Y-146883155D01*
X184796551Y-147008381D01*
X184842484Y-147099853D01*
X184874574Y-147154668D01*
X184887222Y-147169179D01*
X184918669Y-147179695D01*
X184988704Y-147196923D01*
X185092159Y-147219787D01*
X185223866Y-147247213D01*
X185378657Y-147278124D01*
X185551362Y-147311446D01*
X185736815Y-147346103D01*
X185742778Y-147347199D01*
X185927677Y-147381615D01*
X186099259Y-147414402D01*
X186252491Y-147444532D01*
X186382343Y-147470981D01*
X186483783Y-147492722D01*
X186551780Y-147508729D01*
X186581302Y-147517978D01*
X186581667Y-147518236D01*
X186589047Y-147534213D01*
X186595106Y-147571567D01*
X186599944Y-147633621D01*
X186603666Y-147723696D01*
X186606374Y-147845115D01*
X186608171Y-148001201D01*
X186609160Y-148195276D01*
X186609444Y-148415769D01*
X186609444Y-149291302D01*
X186559444Y-149311891D01*
X186523704Y-149321719D01*
X186451173Y-149337887D01*
X186348824Y-149358977D01*
X186223630Y-149383572D01*
X186082563Y-149410254D01*
X186009444Y-149423718D01*
X185761711Y-149469035D01*
X185554159Y-149507301D01*
X185383213Y-149539256D01*
X185245298Y-149565638D01*
X185136838Y-149587186D01*
X185054259Y-149604640D01*
X184993984Y-149618738D01*
X184952440Y-149630219D01*
X184926051Y-149639823D01*
X184911241Y-149648288D01*
X184907837Y-149651435D01*
X184889282Y-149683377D01*
X184858418Y-149749777D01*
X184817601Y-149844538D01*
X184769185Y-149961563D01*
X184715528Y-150094754D01*
X184658983Y-150238014D01*
X184601907Y-150385246D01*
X184546655Y-150530353D01*
X184495582Y-150667236D01*
X184451045Y-150789800D01*
X184415398Y-150891946D01*
X184390997Y-150967578D01*
X184380197Y-151010598D01*
X184380194Y-151017256D01*
X184398286Y-151051312D01*
X184435906Y-151112344D01*
X184487093Y-151190918D01*
X184531711Y-151257016D01*
X184584255Y-151333685D01*
X184656310Y-151438812D01*
X184742256Y-151564198D01*
X184836473Y-151701644D01*
X184933342Y-151842950D01*
X184983547Y-151916184D01*
X185070074Y-152044011D01*
X185147508Y-152161495D01*
X185212417Y-152263177D01*
X185261371Y-152343597D01*
X185290937Y-152397295D01*
X185298333Y-152417065D01*
X185283023Y-152441600D01*
X185239885Y-152492751D01*
X185173104Y-152566317D01*
X185086867Y-152658097D01*
X184985362Y-152763888D01*
X184872774Y-152879490D01*
X184753290Y-153000700D01*
X184631096Y-153123318D01*
X184510380Y-153243142D01*
X184395328Y-153355970D01*
X184290125Y-153457601D01*
X184198960Y-153543833D01*
X184126018Y-153610465D01*
X184075486Y-153653295D01*
X184051721Y-153668127D01*
X184026565Y-153655938D01*
X183969202Y-153621254D01*
X183883952Y-153566901D01*
X183775135Y-153495704D01*
X183647071Y-153410489D01*
X183504081Y-153314082D01*
X183355241Y-153212571D01*
X183201592Y-153107928D01*
X183058353Y-153011752D01*
X182929898Y-152926877D01*
X182820601Y-152856135D01*
X182734837Y-152802359D01*
X182676980Y-152768380D01*
X182651713Y-152757016D01*
X182618960Y-152767170D01*
X182555372Y-152795096D01*
X182468971Y-152836991D01*
X182367777Y-152889052D01*
X182323652Y-152912571D01*
X182218438Y-152967756D01*
X182124426Y-153014326D01*
X182049724Y-153048467D01*
X182002440Y-153066368D01*
X181992885Y-153068127D01*
X181981995Y-153062058D01*
X181966512Y-153042120D01*
X181945286Y-153005720D01*
X181917166Y-152950262D01*
X181881002Y-152873152D01*
X181835643Y-152771796D01*
X181779938Y-152643597D01*
X181712737Y-152485963D01*
X181632888Y-152296297D01*
X181539243Y-152072007D01*
X181430648Y-151810495D01*
X181366884Y-151656509D01*
X181268502Y-151418519D01*
X181175008Y-151191925D01*
X181087814Y-150980173D01*
X181008329Y-150786711D01*
X180937966Y-150614987D01*
X180878135Y-150468447D01*
X180830249Y-150350538D01*
X180795716Y-150264708D01*
X180775950Y-150214404D01*
X180771759Y-150202684D01*
X180776211Y-150168244D01*
X180811926Y-150130100D01*
X180857305Y-150098182D01*
X180981565Y-150013496D01*
X181109317Y-149918585D01*
X181229465Y-149822258D01*
X181330913Y-149733327D01*
X181388145Y-149676683D01*
X181563229Y-149457942D01*
X181699544Y-149223300D01*
X181797786Y-148976848D01*
X181858651Y-148722676D01*
X181882833Y-148464873D01*
X181871029Y-148207531D01*
X181823934Y-147954740D01*
X181742244Y-147710589D01*
X181626655Y-147479170D01*
X181477861Y-147264573D01*
X181296560Y-147070887D01*
X181083446Y-146902203D01*
X180897474Y-146791599D01*
X180690457Y-146697012D01*
X180488535Y-146633702D01*
X180274383Y-146597018D01*
X180130516Y-146585738D01*
X179851919Y-146592816D01*
X179584538Y-146640420D01*
X179331565Y-146725526D01*
X179096192Y-146845111D01*
X178881610Y-146996152D01*
X178691011Y-147175627D01*
X178527587Y-147380512D01*
X178394531Y-147607783D01*
X178295033Y-147854419D01*
X178232285Y-148117395D01*
X178209481Y-148393688D01*
X178209444Y-148405247D01*
X178230063Y-148697146D01*
X178291693Y-148972145D01*
X178393997Y-149229640D01*
X178536637Y-149469025D01*
X178719277Y-149689696D01*
X178941577Y-149891050D01*
X179105894Y-150010425D01*
X179188031Y-150067268D01*
X179255623Y-150117793D01*
X179300338Y-150155542D01*
X179313805Y-150171478D01*
X179316088Y-150177942D01*
X179317119Y-150185873D01*
X179315813Y-150197996D01*
X179311085Y-150217035D01*
X179301850Y-150245717D01*
X179287025Y-150286766D01*
X179265524Y-150342908D01*
X179236263Y-150416867D01*
X179198157Y-150511369D01*
X179150120Y-150629139D01*
X179091070Y-150772901D01*
X179019920Y-150945382D01*
X178935587Y-151149306D01*
X178836985Y-151387398D01*
X178723030Y-151662383D01*
X178656176Y-151823683D01*
X178544890Y-152091537D01*
X178449059Y-152320683D01*
X178367556Y-152513647D01*
X178299254Y-152672956D01*
X178243028Y-152801137D01*
X178197749Y-152900717D01*
X178162291Y-152974222D01*
X178135528Y-153024180D01*
X178116333Y-153053116D01*
X178103579Y-153063559D01*
X178103272Y-153063615D01*
X178069698Y-153055851D01*
X178005317Y-153030054D01*
X177918148Y-152989815D01*
X177816211Y-152938730D01*
X177768509Y-152913615D01*
X177662603Y-152858416D01*
X177568079Y-152811746D01*
X177492944Y-152777364D01*
X177445207Y-152759030D01*
X177434962Y-152757016D01*
X177396710Y-152769351D01*
X177336778Y-152801549D01*
X177274173Y-152842501D01*
X177165731Y-152918878D01*
X177041922Y-153004919D01*
X176907698Y-153097296D01*
X176768008Y-153192683D01*
X176627803Y-153287751D01*
X176492034Y-153379173D01*
X176365650Y-153463621D01*
X176253603Y-153537769D01*
X176160843Y-153598288D01*
X176092320Y-153641852D01*
X176052985Y-153665132D01*
X176045852Y-153668127D01*
X176024987Y-153652901D01*
X175976369Y-153609477D01*
X175903520Y-153541238D01*
X175809961Y-153451567D01*
X175699212Y-153343844D01*
X175574795Y-153221454D01*
X175440230Y-153087777D01*
X175403740Y-153051314D01*
X175267744Y-152914648D01*
X175142140Y-152787261D01*
X175030309Y-152672667D01*
X174935630Y-152574383D01*
X174861482Y-152495923D01*
X174811246Y-152440804D01*
X174788301Y-152412541D01*
X174787222Y-152410010D01*
X174799382Y-152386600D01*
X174833967Y-152330931D01*
X174888134Y-152247309D01*
X174959039Y-152140038D01*
X175043839Y-152013422D01*
X175139691Y-151871765D01*
X175234355Y-151733078D01*
X175338893Y-151580089D01*
X175436012Y-151437090D01*
X175522685Y-151308606D01*
X175595884Y-151199162D01*
X175652581Y-151113281D01*
X175689748Y-151055490D01*
X175703894Y-151031463D01*
X175707816Y-151011120D01*
X175704391Y-150978507D01*
X175692186Y-150929396D01*
X175669766Y-150859557D01*
X175635695Y-150764763D01*
X175588539Y-150640782D01*
X175526865Y-150483388D01*
X175466183Y-150330764D01*
X175401368Y-150169693D01*
X175340671Y-150021273D01*
X175286307Y-149890734D01*
X175240491Y-149783305D01*
X175205437Y-149704215D01*
X175183359Y-149658693D01*
X175177953Y-149650229D01*
X175150307Y-149639677D01*
X175083920Y-149622370D01*
X174983800Y-149599379D01*
X174854956Y-149571777D01*
X174702397Y-149540634D01*
X174531132Y-149507024D01*
X174346169Y-149472018D01*
X174339298Y-149470741D01*
X174154592Y-149436153D01*
X173983259Y-149403496D01*
X173830317Y-149373772D01*
X173700782Y-149347980D01*
X173599672Y-149327120D01*
X173532002Y-149312191D01*
X173502791Y-149304192D01*
X173502434Y-149303995D01*
X173495240Y-149277981D01*
X173489095Y-149213379D01*
X173483995Y-149116032D01*
X173479934Y-148991781D01*
X173476907Y-148846472D01*
X173474911Y-148685946D01*
X173473939Y-148516048D01*
X173473988Y-148342619D01*
X173475053Y-148171504D01*
X173477129Y-148008545D01*
X173480210Y-147859586D01*
X173484294Y-147730470D01*
X173489373Y-147627040D01*
X173495445Y-147555138D01*
X173502503Y-147520609D01*
X173503889Y-147518806D01*
X173531389Y-147510076D01*
X173597645Y-147494528D01*
X173697660Y-147473172D01*
X173826443Y-147447022D01*
X173978997Y-147417089D01*
X174150329Y-147384385D01*
X174335444Y-147349924D01*
X174353889Y-147346536D01*
X174599335Y-147300815D01*
X174801992Y-147261534D01*
X174963011Y-147228441D01*
X175083540Y-147201287D01*
X175164730Y-147179822D01*
X175207729Y-147163797D01*
X175213705Y-147159689D01*
X175234019Y-147128300D01*
X175267706Y-147062716D01*
X175312099Y-146969210D01*
X175364529Y-146854053D01*
X175422330Y-146723518D01*
X175482833Y-146583876D01*
X175543372Y-146441400D01*
X175601279Y-146302361D01*
X175653886Y-146173032D01*
X175698526Y-146059684D01*
X175732531Y-145968590D01*
X175753234Y-145906022D01*
X175758280Y-145879238D01*
X175744068Y-145851362D01*
X175707331Y-145791323D01*
X175650917Y-145703450D01*
X175577674Y-145592070D01*
X175490450Y-145461511D01*
X175392093Y-145316101D01*
X175285451Y-145160167D01*
X175276279Y-145146832D01*
X175169034Y-144990319D01*
X175069725Y-144844110D01*
X174981214Y-144712513D01*
X174906359Y-144599835D01*
X174848021Y-144510384D01*
X174809059Y-144448467D01*
X174792334Y-144418393D01*
X174792031Y-144417448D01*
X174797288Y-144398006D01*
X174820872Y-144362741D01*
X174864864Y-144309388D01*
X174931342Y-144235680D01*
X175022386Y-144139350D01*
X175140076Y-144018131D01*
X175286492Y-143869757D01*
X175389227Y-143766521D01*
X175538880Y-143617551D01*
X175674358Y-143484763D01*
X175792808Y-143370834D01*
X175891381Y-143278441D01*
X175967224Y-143210263D01*
X176017488Y-143168977D01*
X176038261Y-143157016D01*
X176065184Y-143169243D01*
X176124387Y-143204102D01*
X176211654Y-143258858D01*
X176322770Y-143330775D01*
X176453519Y-143417119D01*
X176599687Y-143515154D01*
X176757058Y-143622146D01*
X176791731Y-143645905D01*
X176990264Y-143781153D01*
X177162158Y-143896211D01*
X177305692Y-143989981D01*
X177419145Y-144061365D01*
X177500795Y-144109268D01*
X177548922Y-144132591D01*
X177558595Y-144134794D01*
X177597627Y-144125988D01*
X177675259Y-144100113D01*
X177789404Y-144057980D01*
X177937974Y-144000403D01*
X178118880Y-143928193D01*
X178330036Y-143842164D01*
X178569352Y-143743128D01*
X178628428Y-143718482D01*
X178704592Y-143681888D01*
X178766003Y-143643746D01*
X178798096Y-143613808D01*
X178808473Y-143582067D01*
X178825531Y-143511742D01*
X178848202Y-143408013D01*
X178875419Y-143276059D01*
X178906114Y-143121060D01*
X178939220Y-142948196D01*
X178973668Y-142762646D01*
X178974697Y-142757016D01*
X179008976Y-142570985D01*
X179041559Y-142397288D01*
X179071427Y-142241138D01*
X179097557Y-142107745D01*
X179118929Y-142002323D01*
X179134520Y-141930082D01*
X179143310Y-141896235D01*
X179143442Y-141895905D01*
X179164047Y-141845905D01*
X180039580Y-141845905D01*
X180272473Y-141846226D01*
G37*
G36*
X187071962Y-155706497D02*
G01*
X187120402Y-155510370D01*
X187198983Y-155345041D01*
X187306838Y-155211832D01*
X187443100Y-155112065D01*
X187471971Y-155097076D01*
X187548657Y-155063549D01*
X187619150Y-155044609D01*
X187702209Y-155036435D01*
X187776408Y-155035074D01*
X187875378Y-155037301D01*
X187949765Y-155047284D01*
X188019299Y-155069425D01*
X188103499Y-155108019D01*
X188243699Y-155194635D01*
X188350565Y-155303302D01*
X188431510Y-155439425D01*
X188452064Y-155491449D01*
X188465374Y-155549991D01*
X188472835Y-155626014D01*
X188475840Y-155730483D01*
X188476111Y-155790107D01*
X188476111Y-156045905D01*
X187409444Y-156045905D01*
X187409444Y-156118974D01*
X187428639Y-156221950D01*
X187479678Y-156323732D01*
X187552747Y-156407644D01*
X187598333Y-156439892D01*
X187714879Y-156481326D01*
X187846154Y-156489197D01*
X187979798Y-156465177D01*
X188103454Y-156410939D01*
X188170110Y-156362496D01*
X188194636Y-156346403D01*
X188221086Y-156348576D01*
X188260328Y-156373021D01*
X188312805Y-156415085D01*
X188372282Y-156463747D01*
X188419713Y-156501445D01*
X188440771Y-156517158D01*
X188444617Y-156541546D01*
X188417303Y-156581277D01*
X188366300Y-156629723D01*
X188299083Y-156680255D01*
X188223124Y-156726247D01*
X188182464Y-156746252D01*
X188029651Y-156794990D01*
X187858916Y-156816682D01*
X187688596Y-156809983D01*
X187587222Y-156789885D01*
X187429040Y-156724426D01*
X187293410Y-156624395D01*
X187186375Y-156495623D01*
X187113977Y-156343944D01*
X187109031Y-156328257D01*
X187079571Y-156193123D01*
X187062422Y-156034230D01*
X187058732Y-155870839D01*
X187065461Y-155779238D01*
X187403664Y-155779238D01*
X188148558Y-155779238D01*
X188137000Y-155676699D01*
X188103076Y-155556143D01*
X188034816Y-155459472D01*
X187938293Y-155392068D01*
X187819580Y-155359307D01*
X187776111Y-155357016D01*
X187651348Y-155377028D01*
X187546751Y-155433478D01*
X187468392Y-155520987D01*
X187422343Y-155634177D01*
X187415222Y-155676699D01*
X187403664Y-155779238D01*
X187065461Y-155779238D01*
X187069650Y-155722210D01*
X187071962Y-155706497D01*
G37*
G36*
X186411807Y-155030931D02*
G01*
X186519910Y-155054558D01*
X186635573Y-155097517D01*
X186747071Y-155153608D01*
X186842676Y-155216627D01*
X186910661Y-155280371D01*
X186926670Y-155303246D01*
X186921181Y-155337584D01*
X186876937Y-155393114D01*
X186840909Y-155428265D01*
X186784746Y-155478975D01*
X186741145Y-155515923D01*
X186721461Y-155529979D01*
X186695862Y-155521768D01*
X186645439Y-155494116D01*
X186588323Y-155457756D01*
X186513747Y-155411938D01*
X186451562Y-155388234D01*
X186380411Y-155379837D01*
X186341991Y-155379238D01*
X186223048Y-155386741D01*
X186131431Y-155412860D01*
X186052030Y-155463013D01*
X186014391Y-155496662D01*
X185947542Y-155589127D01*
X185902280Y-155709535D01*
X185878867Y-155846834D01*
X185877566Y-155989973D01*
X185898638Y-156127901D01*
X185942347Y-156249565D01*
X185994648Y-156328745D01*
X186078779Y-156404547D01*
X186175648Y-156449129D01*
X186296877Y-156467183D01*
X186339831Y-156468127D01*
X186422152Y-156464340D01*
X186485526Y-156448454D01*
X186551441Y-156413677D01*
X186588323Y-156389609D01*
X186651281Y-156349780D01*
X186699734Y-156323796D01*
X186721461Y-156317386D01*
X186749612Y-156336924D01*
X186795276Y-156376589D01*
X186847918Y-156426187D01*
X186897000Y-156475524D01*
X186931988Y-156514405D01*
X186942778Y-156531532D01*
X186926039Y-156555144D01*
X186882465Y-156595438D01*
X186822019Y-156644175D01*
X186754662Y-156693113D01*
X186718833Y-156716779D01*
X186593635Y-156774373D01*
X186444114Y-156808947D01*
X186285230Y-156818278D01*
X186142778Y-156802475D01*
X185971720Y-156745990D01*
X185825815Y-156653263D01*
X185706571Y-156525684D01*
X185615498Y-156364643D01*
X185586970Y-156290210D01*
X185565408Y-156219986D01*
X185551919Y-156154619D01*
X185545261Y-156081404D01*
X185544196Y-155987641D01*
X185546861Y-155879238D01*
X185551686Y-155761019D01*
X185558661Y-155674905D01*
X185570100Y-155608560D01*
X185588315Y-155549645D01*
X185615617Y-155485823D01*
X185623910Y-155468127D01*
X185708380Y-155325590D01*
X185813105Y-155206249D01*
X185929087Y-155120120D01*
X185943324Y-155112498D01*
X186047742Y-155072622D01*
X186175462Y-155043493D01*
X186305920Y-155028689D01*
X186411807Y-155030931D01*
G37*
G36*
X180087838Y-155044131D02*
G01*
X180266509Y-155090494D01*
X180378721Y-155136416D01*
X180472372Y-155182989D01*
X180527953Y-155220228D01*
X180548303Y-155256166D01*
X180536264Y-155298834D01*
X180494677Y-155356263D01*
X180467784Y-155388239D01*
X180365147Y-155508376D01*
X180238705Y-155439892D01*
X180152842Y-155399175D01*
X180069815Y-155375501D01*
X179968346Y-155363243D01*
X179942604Y-155361587D01*
X179799765Y-155364390D01*
X179693968Y-155391574D01*
X179625011Y-155443267D01*
X179592690Y-155519599D01*
X179591446Y-155584740D01*
X179605370Y-155636724D01*
X179639211Y-155676556D01*
X179698411Y-155706517D01*
X179788410Y-155728888D01*
X179914648Y-155745952D01*
X179993228Y-155753220D01*
X180156890Y-155771821D01*
X180284096Y-155799070D01*
X180382493Y-155838117D01*
X180459729Y-155892109D01*
X180523449Y-155964198D01*
X180530846Y-155974640D01*
X180569978Y-156040006D01*
X180592325Y-156106188D01*
X180603632Y-156192246D01*
X180605609Y-156222611D01*
X180606267Y-156314106D01*
X180599356Y-156399723D01*
X180588331Y-156453657D01*
X180538641Y-156545702D01*
X180456444Y-156635057D01*
X180353009Y-156711353D01*
X180257818Y-156757814D01*
X180135211Y-156790777D01*
X179989349Y-156810431D01*
X179838452Y-156815720D01*
X179700740Y-156805589D01*
X179639397Y-156793625D01*
X179497535Y-156746225D01*
X179358686Y-156680188D01*
X179240189Y-156604244D01*
X179203530Y-156574090D01*
X179122600Y-156501460D01*
X179242630Y-156394901D01*
X179362661Y-156288342D01*
X179480497Y-156365904D01*
X179618670Y-156439485D01*
X179763519Y-156479149D01*
X179928179Y-156488177D01*
X179963866Y-156486639D01*
X180092946Y-156466473D01*
X180189606Y-156423880D01*
X180251172Y-156361242D01*
X180274967Y-156280939D01*
X180267870Y-156216096D01*
X180246714Y-156171380D01*
X180204729Y-156136831D01*
X180136093Y-156110230D01*
X180034978Y-156089361D01*
X179895560Y-156072004D01*
X179887222Y-156071163D01*
X179737819Y-156053936D01*
X179623983Y-156034299D01*
X179536840Y-156009280D01*
X179467516Y-155975910D01*
X179407138Y-155931219D01*
X179372777Y-155898997D01*
X179293146Y-155789980D01*
X179247770Y-155662334D01*
X179237096Y-155526287D01*
X179261574Y-155392063D01*
X179321653Y-155269887D01*
X179343863Y-155240502D01*
X179448970Y-155146527D01*
X179583052Y-155079185D01*
X179738978Y-155039193D01*
X179909617Y-155027269D01*
X180087838Y-155044131D01*
G37*
G36*
X177165000Y-158021560D02*
G01*
X177226111Y-157964054D01*
X177336277Y-157884737D01*
X177465494Y-157839166D01*
X177620555Y-157824659D01*
X177728311Y-157832458D01*
X177829716Y-157853505D01*
X177913018Y-157884272D01*
X177966463Y-157921235D01*
X177973493Y-157930558D01*
X177966361Y-157956524D01*
X177935308Y-158006372D01*
X177886264Y-158071052D01*
X177863594Y-158098282D01*
X177739719Y-158243391D01*
X177669026Y-158200287D01*
X177566540Y-158161946D01*
X177457519Y-158161524D01*
X177352780Y-158196022D01*
X177263143Y-158262443D01*
X177215365Y-158325996D01*
X177200356Y-158353867D01*
X177188717Y-158382597D01*
X177180015Y-158417974D01*
X177173820Y-158465788D01*
X177169699Y-158531826D01*
X177167219Y-158621877D01*
X177165950Y-158741729D01*
X177165458Y-158897171D01*
X177165365Y-158995905D01*
X177165000Y-159579238D01*
X176809444Y-159579238D01*
X176809444Y-157823683D01*
X177165000Y-157823683D01*
X177165000Y-158021560D01*
G37*
G36*
X185218943Y-158266754D02*
G01*
X185255000Y-158185375D01*
X185346190Y-158042002D01*
X185461868Y-157935152D01*
X185603098Y-157864199D01*
X185770942Y-157828521D01*
X185871005Y-157823700D01*
X185974118Y-157827025D01*
X186053794Y-157839833D01*
X186130737Y-157866412D01*
X186176111Y-157886896D01*
X186320131Y-157978109D01*
X186440511Y-158100575D01*
X186527014Y-158243185D01*
X186550731Y-158309625D01*
X186567071Y-158390955D01*
X186577756Y-158498042D01*
X186582862Y-158595905D01*
X186592815Y-158845905D01*
X185475264Y-158845905D01*
X185488794Y-158907016D01*
X185533627Y-159051663D01*
X185597465Y-159157774D01*
X185683886Y-159228494D01*
X185796471Y-159266968D01*
X185909444Y-159276654D01*
X186017243Y-159267600D01*
X186117387Y-159235590D01*
X186224612Y-159175276D01*
X186265000Y-159147585D01*
X186290835Y-159133784D01*
X186317391Y-159136072D01*
X186354326Y-159158897D01*
X186411297Y-159206708D01*
X186430789Y-159223964D01*
X186552133Y-159331884D01*
X186475233Y-159401844D01*
X186352454Y-159493525D01*
X186216109Y-159554029D01*
X186056651Y-159586813D01*
X185942778Y-159594712D01*
X185812956Y-159594264D01*
X185706426Y-159585358D01*
X185642759Y-159571847D01*
X185485782Y-159499056D01*
X185358432Y-159393204D01*
X185260813Y-159254456D01*
X185193029Y-159082973D01*
X185155185Y-158878918D01*
X185149119Y-158801460D01*
X185148295Y-158600139D01*
X185158467Y-158521676D01*
X185487763Y-158521676D01*
X185493534Y-158544809D01*
X185518778Y-158548905D01*
X185580771Y-158552417D01*
X185671817Y-158555092D01*
X185784222Y-158556683D01*
X185868704Y-158557016D01*
X186231667Y-158557016D01*
X186231178Y-158495905D01*
X186221577Y-158436954D01*
X186198226Y-158364714D01*
X186189324Y-158343706D01*
X186123214Y-158246324D01*
X186032951Y-158179368D01*
X185927685Y-158143828D01*
X185816564Y-158140696D01*
X185708736Y-158170964D01*
X185613349Y-158235622D01*
X185576117Y-158277255D01*
X185543893Y-158331721D01*
X185515535Y-158399981D01*
X185495380Y-158467983D01*
X185487763Y-158521676D01*
X185158467Y-158521676D01*
X185170887Y-158425875D01*
X185218943Y-158266754D01*
G37*
G36*
X184298333Y-158003722D02*
G01*
X184371752Y-157947723D01*
X184489295Y-157875154D01*
X184614291Y-157835609D01*
X184758731Y-157824171D01*
X184861309Y-157832095D01*
X184960000Y-157852754D01*
X185042544Y-157882450D01*
X185096679Y-157917489D01*
X185105724Y-157928774D01*
X185098209Y-157954014D01*
X185067097Y-158003513D01*
X185018304Y-158068294D01*
X184995373Y-158096223D01*
X184872148Y-158242841D01*
X184801907Y-158200012D01*
X184700577Y-158162524D01*
X184590638Y-158161757D01*
X184483745Y-158194876D01*
X184391549Y-158259044D01*
X184348776Y-158310302D01*
X184333700Y-158334219D01*
X184321972Y-158359137D01*
X184313173Y-158390655D01*
X184306881Y-158434372D01*
X184302677Y-158495886D01*
X184300140Y-158580796D01*
X184298851Y-158694702D01*
X184298389Y-158843201D01*
X184298333Y-158982524D01*
X184298333Y-159579238D01*
X183942778Y-159579238D01*
X183942778Y-157823683D01*
X184298333Y-157823683D01*
X184298333Y-158003722D01*
G37*
G36*
X171596837Y-155785300D02*
G01*
X171613327Y-155628851D01*
X171641755Y-155493408D01*
X171676895Y-155399924D01*
X171759582Y-155278804D01*
X171872574Y-155170770D01*
X171999271Y-155090577D01*
X172065335Y-155062784D01*
X172132342Y-155046194D01*
X172215547Y-155038123D01*
X172309444Y-155035959D01*
X172413037Y-155037144D01*
X172488050Y-155044089D01*
X172550258Y-155059731D01*
X172615434Y-155087002D01*
X172635234Y-155096567D01*
X172776899Y-155189268D01*
X172894074Y-155312743D01*
X172971182Y-155443185D01*
X172992511Y-155501592D01*
X173007695Y-155571417D01*
X173018187Y-155662679D01*
X173025443Y-155785396D01*
X173027174Y-155828988D01*
X173028757Y-156037324D01*
X173015445Y-156209355D01*
X172985279Y-156351297D01*
X172936295Y-156469366D01*
X172866533Y-156569777D01*
X172774030Y-156658747D01*
X172762367Y-156668114D01*
X172617161Y-156755693D01*
X172453117Y-156808009D01*
X172281263Y-156822712D01*
X172131667Y-156802506D01*
X171971817Y-156741592D01*
X171834218Y-156646726D01*
X171725161Y-156523371D01*
X171655313Y-156389055D01*
X171621522Y-156264633D01*
X171600682Y-156114797D01*
X171595646Y-156013601D01*
X171943580Y-156013601D01*
X171944383Y-156101309D01*
X171949529Y-156164534D01*
X171960025Y-156213227D01*
X171976877Y-156257339D01*
X171984820Y-156274277D01*
X172051981Y-156372808D01*
X172141878Y-156434801D01*
X172257553Y-156461905D01*
X172332612Y-156462572D01*
X172442376Y-156447953D01*
X172522250Y-156415440D01*
X172535428Y-156406694D01*
X172594354Y-156355684D01*
X172636338Y-156294542D01*
X172663829Y-156215379D01*
X172679274Y-156110306D01*
X172685123Y-155971434D01*
X172685375Y-155923683D01*
X172684298Y-155804970D01*
X172680272Y-155720113D01*
X172671848Y-155658551D01*
X172657579Y-155609720D01*
X172636017Y-155563058D01*
X172635919Y-155562870D01*
X172567039Y-155475298D01*
X172472222Y-155413711D01*
X172362772Y-155381037D01*
X172249992Y-155380207D01*
X172145183Y-155414150D01*
X172120329Y-155429238D01*
X172056906Y-155476145D01*
X172011712Y-155522519D01*
X171981406Y-155577219D01*
X171962651Y-155649106D01*
X171952107Y-155747037D01*
X171946435Y-155879872D01*
X171946114Y-155891461D01*
X171943580Y-156013601D01*
X171595646Y-156013601D01*
X171592538Y-155951151D01*
X171596837Y-155785300D01*
G37*
G36*
X180843417Y-155666721D02*
G01*
X180852652Y-155596368D01*
X180905873Y-155427234D01*
X180992298Y-155284080D01*
X181107194Y-155169732D01*
X181245825Y-155087019D01*
X181403459Y-155038769D01*
X181575360Y-155027811D01*
X181755955Y-155056745D01*
X181913640Y-155117404D01*
X182041663Y-155206846D01*
X182140931Y-155326607D01*
X182212352Y-155478222D01*
X182256835Y-155663227D01*
X182275287Y-155883157D01*
X182275943Y-155936268D01*
X182262098Y-156160295D01*
X182219720Y-156350841D01*
X182148266Y-156508949D01*
X182047191Y-156635662D01*
X181915953Y-156732024D01*
X181842778Y-156767512D01*
X181740726Y-156796474D01*
X181614765Y-156812298D01*
X181483726Y-156814026D01*
X181366441Y-156800702D01*
X181335496Y-156793275D01*
X181202286Y-156736889D01*
X181078291Y-156649894D01*
X180973596Y-156541739D01*
X180898283Y-156421870D01*
X180875247Y-156362010D01*
X180859622Y-156284266D01*
X180847635Y-156174656D01*
X180839654Y-156045638D01*
X180836045Y-155909671D01*
X180836284Y-155882096D01*
X181178421Y-155882096D01*
X181178445Y-155923683D01*
X181183309Y-156080295D01*
X181198839Y-156200169D01*
X181227556Y-156290260D01*
X181271982Y-156357522D01*
X181334638Y-156408909D01*
X181359689Y-156423538D01*
X181449212Y-156454091D01*
X181555487Y-156464190D01*
X181661310Y-156454323D01*
X181749478Y-156424982D01*
X181770771Y-156411838D01*
X181830774Y-156356980D01*
X181873473Y-156288173D01*
X181901149Y-156197984D01*
X181916083Y-156078977D01*
X181920555Y-155923721D01*
X181920555Y-155923683D01*
X181919255Y-155801982D01*
X181914474Y-155714134D01*
X181904896Y-155649599D01*
X181889202Y-155597836D01*
X181876109Y-155568123D01*
X181809300Y-155475766D01*
X181718982Y-155413807D01*
X181614175Y-155382355D01*
X181503896Y-155381520D01*
X181397163Y-155411413D01*
X181302995Y-155472143D01*
X181232380Y-155560278D01*
X181208909Y-155605807D01*
X181193343Y-155650209D01*
X181184116Y-155704028D01*
X181179664Y-155777809D01*
X181178421Y-155882096D01*
X180836284Y-155882096D01*
X180837177Y-155779212D01*
X180843417Y-155666721D01*
G37*
G36*
X182924203Y-155629238D02*
G01*
X182926688Y-155806914D01*
X182929356Y-155945860D01*
X182932667Y-156051790D01*
X182937080Y-156130418D01*
X182943054Y-156187456D01*
X182951048Y-156228619D01*
X182961521Y-156259621D01*
X182974933Y-156286175D01*
X182977312Y-156290274D01*
X183053082Y-156381788D01*
X183148196Y-156441263D01*
X183253878Y-156468702D01*
X183361351Y-156464111D01*
X183461840Y-156427495D01*
X183546569Y-156358860D01*
X183592743Y-156289906D01*
X183604701Y-156261529D01*
X183613966Y-156226040D01*
X183620870Y-156177791D01*
X183625744Y-156111136D01*
X183628923Y-156020430D01*
X183630737Y-155900027D01*
X183631519Y-155744280D01*
X183631632Y-155629238D01*
X183631667Y-155045905D01*
X183987222Y-155045905D01*
X183987222Y-156801460D01*
X183631667Y-156801460D01*
X183631667Y-156619732D01*
X183562336Y-156678070D01*
X183462846Y-156749729D01*
X183363023Y-156791732D01*
X183242982Y-156812072D01*
X183225484Y-156813495D01*
X183082727Y-156810772D01*
X182976111Y-156785550D01*
X182866343Y-156729808D01*
X182761116Y-156643806D01*
X182715039Y-156595541D01*
X182677879Y-156548589D01*
X182648684Y-156497642D01*
X182626500Y-156437392D01*
X182610375Y-156362529D01*
X182599354Y-156267745D01*
X182592486Y-156147733D01*
X182588817Y-155997182D01*
X182587394Y-155810785D01*
X182587222Y-155675205D01*
X182587222Y-155045905D01*
X182916740Y-155045905D01*
X182924203Y-155629238D01*
G37*
D12*
%TO.C,D4*%
X144448200Y-82241200D02*
X144448200Y-83261200D01*
X142978200Y-88701200D02*
X145918200Y-88701200D01*
X145918200Y-84041200D02*
X142978200Y-84041200D01*
X142978200Y-83261200D02*
X142978200Y-88701200D01*
X144448200Y-89721200D02*
X144448200Y-88701200D01*
X145918200Y-84161200D02*
X142978200Y-84161200D01*
X145918200Y-84281200D02*
X142978200Y-84281200D01*
X145918200Y-83261200D02*
X142978200Y-83261200D01*
X145918200Y-88701200D02*
X145918200Y-83261200D01*
%TO.C,R4*%
X59833200Y-142630400D02*
X59833200Y-141860400D01*
X59833200Y-134550400D02*
X59833200Y-135320400D01*
X58463200Y-135320400D02*
X58463200Y-141860400D01*
X61203200Y-135320400D02*
X58463200Y-135320400D01*
X58463200Y-141860400D02*
X61203200Y-141860400D01*
X61203200Y-141860400D02*
X61203200Y-135320400D01*
%TO.C,C3*%
X142033600Y-126695800D02*
X142033600Y-123955800D01*
X142033600Y-123955800D02*
X136793600Y-123955800D01*
X136793600Y-126695800D02*
X136793600Y-123955800D01*
X142033600Y-126695800D02*
X136793600Y-126695800D01*
%TO.C,R7*%
X108813400Y-98059400D02*
X108043400Y-98059400D01*
X101503400Y-96689400D02*
X101503400Y-99429400D01*
X100733400Y-98059400D02*
X101503400Y-98059400D01*
X108043400Y-96689400D02*
X101503400Y-96689400D01*
X108043400Y-99429400D02*
X108043400Y-96689400D01*
X101503400Y-99429400D02*
X108043400Y-99429400D01*
%TO.C,U2*%
X101237400Y-154218600D02*
X101237400Y-159518600D01*
X124217400Y-154218600D02*
X101237400Y-154218600D01*
X124217400Y-155868600D02*
X124217400Y-154218600D01*
X124217400Y-159518600D02*
X124217400Y-157868600D01*
X101237400Y-159518600D02*
X124217400Y-159518600D01*
X124217400Y-155868600D02*
G75*
G03*
X124217400Y-157868600I0J-1000000D01*
G01*
D15*
%TO.C,U4*%
X142062200Y-123473200D02*
X142062200Y-82833200D01*
X126822200Y-82833200D02*
X126822200Y-123473200D01*
X126822200Y-123473200D02*
X142062200Y-123473200D01*
X142062200Y-82833200D02*
X126822200Y-82833200D01*
D12*
%TO.C,R10*%
X113515200Y-165868600D02*
X113515200Y-172408600D01*
X113515200Y-172408600D02*
X116255200Y-172408600D01*
X114885200Y-173178600D02*
X114885200Y-172408600D01*
X116255200Y-165868600D02*
X113515200Y-165868600D01*
X116255200Y-172408600D02*
X116255200Y-165868600D01*
X114885200Y-165098600D02*
X114885200Y-165868600D01*
%TO.C,D1*%
X73941000Y-87815400D02*
X73941000Y-82375400D01*
X75366000Y-82375400D02*
X65626000Y-82375400D01*
X64716000Y-85095400D02*
X65626000Y-85095400D01*
X65626000Y-87815400D02*
X75366000Y-87815400D01*
X73821000Y-87815400D02*
X73821000Y-82375400D01*
X76276000Y-85095400D02*
X75366000Y-85095400D01*
X65626000Y-82375400D02*
X65626000Y-87815400D01*
X73701000Y-87815400D02*
X73701000Y-82375400D01*
X75366000Y-87815400D02*
X75366000Y-82375400D01*
%TO.C,R11*%
X109515200Y-172408600D02*
X112255200Y-172408600D01*
X110885200Y-165098600D02*
X110885200Y-165868600D01*
X112255200Y-165868600D02*
X109515200Y-165868600D01*
X112255200Y-172408600D02*
X112255200Y-165868600D01*
X110885200Y-173178600D02*
X110885200Y-172408600D01*
X109515200Y-165868600D02*
X109515200Y-172408600D01*
%TO.C,R12*%
X122885200Y-165098600D02*
X122885200Y-165868600D01*
X121515200Y-165868600D02*
X121515200Y-172408600D01*
X121515200Y-172408600D02*
X124255200Y-172408600D01*
X124255200Y-165868600D02*
X121515200Y-165868600D01*
X124255200Y-172408600D02*
X124255200Y-165868600D01*
X122885200Y-173178600D02*
X122885200Y-172408600D01*
%TO.C,D2*%
X70726800Y-93194800D02*
X70726800Y-90254800D01*
X66306800Y-90254800D02*
X66306800Y-93194800D01*
X64266800Y-91724800D02*
X65286800Y-91724800D01*
X65286800Y-93194800D02*
X70726800Y-93194800D01*
X65286800Y-90254800D02*
X65286800Y-93194800D01*
X71746800Y-91724800D02*
X70726800Y-91724800D01*
X66066800Y-90254800D02*
X66066800Y-93194800D01*
X70726800Y-90254800D02*
X65286800Y-90254800D01*
X66186800Y-90254800D02*
X66186800Y-93194800D01*
%TO.C,C5*%
X120071840Y-91051200D02*
X114831840Y-91051200D01*
X120071840Y-88311200D02*
X114831840Y-88311200D01*
X114831840Y-91051200D02*
X114831840Y-88311200D01*
X120071840Y-91051200D02*
X120071840Y-88311200D01*
%TO.C,R2*%
X85198800Y-93278200D02*
X85198800Y-109018200D01*
X90438800Y-93278200D02*
X85198800Y-93278200D01*
X85198800Y-109018200D02*
X90438800Y-109018200D01*
X87818800Y-109868200D02*
X87818800Y-109018200D01*
X87818800Y-92428200D02*
X87818800Y-93278200D01*
X90438800Y-109018200D02*
X90438800Y-93278200D01*
%TO.C,C1*%
X81914200Y-117420400D02*
X63752200Y-117420400D01*
X72873200Y-126540400D02*
X72793200Y-126540400D01*
X74693200Y-126340400D02*
X70973200Y-126340400D01*
X80692200Y-121981400D02*
X74273200Y-121981400D01*
X71393200Y-119901400D02*
X64096200Y-119901400D01*
X71393200Y-120701400D02*
X64363200Y-120701400D01*
X81905200Y-117820400D02*
X63761200Y-117820400D01*
X73999200Y-126460400D02*
X71667200Y-126460400D01*
X75940200Y-125980400D02*
X69726200Y-125980400D01*
X77385200Y-125301400D02*
X68281200Y-125301400D01*
X79765200Y-123301400D02*
X65901200Y-123301400D01*
X81878200Y-118221400D02*
X63788200Y-118221400D01*
X78011200Y-124901400D02*
X67655200Y-124901400D01*
X71393200Y-121141400D02*
X64546200Y-121141400D01*
X80989200Y-121421400D02*
X74273200Y-121421400D01*
X81460200Y-120261400D02*
X74273200Y-120261400D01*
X80715200Y-121941400D02*
X74273200Y-121941400D01*
X81812200Y-118781400D02*
X63854200Y-118781400D01*
X81378200Y-120501400D02*
X74273200Y-120501400D01*
X71393200Y-122341400D02*
X65193200Y-122341400D01*
X81498200Y-120141400D02*
X74273200Y-120141400D01*
X81786200Y-118941400D02*
X63880200Y-118941400D01*
X81903200Y-117860400D02*
X63763200Y-117860400D01*
X81102200Y-121181400D02*
X74273200Y-121181400D01*
X81901200Y-117900400D02*
X63765200Y-117900400D01*
X81859200Y-118421400D02*
X63807200Y-118421400D01*
X80737200Y-121901400D02*
X74273200Y-121901400D01*
X71393200Y-119981400D02*
X64119200Y-119981400D01*
X80847200Y-121701400D02*
X74273200Y-121701400D01*
X81207200Y-120941400D02*
X74273200Y-120941400D01*
X78848200Y-108560960D02*
X77048200Y-108560960D01*
X78591200Y-124461400D02*
X67075200Y-124461400D01*
X71393200Y-122581400D02*
X65353200Y-122581400D01*
X81913200Y-117500400D02*
X63753200Y-117500400D01*
X81664200Y-119541400D02*
X64002200Y-119541400D01*
X80523200Y-122261400D02*
X74273200Y-122261400D01*
X81718200Y-119301400D02*
X63948200Y-119301400D01*
X80258200Y-122661400D02*
X65408200Y-122661400D01*
X80286200Y-122621400D02*
X65380200Y-122621400D01*
X71393200Y-120061400D02*
X64143200Y-120061400D01*
X81772200Y-119021400D02*
X63894200Y-119021400D01*
X71393200Y-122261400D02*
X65143200Y-122261400D01*
X79087200Y-124021400D02*
X66579200Y-124021400D01*
X79591200Y-123501400D02*
X66075200Y-123501400D01*
X81912200Y-117580400D02*
X63754200Y-117580400D01*
X73647200Y-126500400D02*
X72019200Y-126500400D01*
X71393200Y-121301400D02*
X64619200Y-121301400D01*
X79960200Y-123061400D02*
X65706200Y-123061400D01*
X81156200Y-121061400D02*
X74273200Y-121061400D01*
X81272200Y-120781400D02*
X74273200Y-120781400D01*
X71393200Y-120981400D02*
X64476200Y-120981400D01*
X78068200Y-124861400D02*
X67598200Y-124861400D01*
X81867200Y-118341400D02*
X63799200Y-118341400D01*
X71393200Y-120621400D02*
X64332200Y-120621400D01*
X81535200Y-120021400D02*
X74273200Y-120021400D01*
X81779200Y-118981400D02*
X63887200Y-118981400D01*
X71393200Y-122141400D02*
X65069200Y-122141400D01*
X81173200Y-121021400D02*
X74273200Y-121021400D01*
X81909200Y-117700400D02*
X63757200Y-117700400D01*
X76946200Y-125541400D02*
X68720200Y-125541400D01*
X71393200Y-120181400D02*
X64180200Y-120181400D01*
X81473200Y-120221400D02*
X74273200Y-120221400D01*
X74494200Y-126380400D02*
X71172200Y-126380400D01*
X79482200Y-123621400D02*
X66184200Y-123621400D01*
X81334200Y-120621400D02*
X74273200Y-120621400D01*
X71393200Y-121421400D02*
X64677200Y-121421400D01*
X81742200Y-119181400D02*
X63924200Y-119181400D01*
X81700200Y-119381400D02*
X63966200Y-119381400D01*
X71393200Y-120141400D02*
X64168200Y-120141400D01*
X71393200Y-122501400D02*
X65298200Y-122501400D01*
X81486200Y-120181400D02*
X74273200Y-120181400D01*
X81673200Y-119501400D02*
X63993200Y-119501400D01*
X79519200Y-123581400D02*
X66147200Y-123581400D01*
X79798200Y-123261400D02*
X65868200Y-123261400D01*
X77585200Y-125181400D02*
X68081200Y-125181400D01*
X81682200Y-119461400D02*
X63984200Y-119461400D01*
X81863200Y-118381400D02*
X63803200Y-118381400D01*
X71393200Y-119781400D02*
X64063200Y-119781400D01*
X78124200Y-124821400D02*
X67542200Y-124821400D01*
X81433200Y-120341400D02*
X74273200Y-120341400D01*
X71393200Y-121021400D02*
X64493200Y-121021400D01*
X81885200Y-118141400D02*
X63781200Y-118141400D01*
X81392200Y-120461400D02*
X74273200Y-120461400D01*
X81047200Y-121301400D02*
X74273200Y-121301400D01*
X80548200Y-122221400D02*
X74273200Y-122221400D01*
X71393200Y-120581400D02*
X64317200Y-120581400D01*
X71393200Y-121341400D02*
X64638200Y-121341400D01*
X71393200Y-121781400D02*
X64862200Y-121781400D01*
X78780200Y-124301400D02*
X66886200Y-124301400D01*
X71393200Y-121941400D02*
X64951200Y-121941400D01*
X81581200Y-119861400D02*
X74273200Y-119861400D01*
X78493200Y-124541400D02*
X67173200Y-124541400D01*
X80621200Y-122101400D02*
X74273200Y-122101400D01*
X77245200Y-125381400D02*
X68421200Y-125381400D01*
X76047200Y-125940400D02*
X69619200Y-125940400D01*
X81654200Y-119581400D02*
X64012200Y-119581400D01*
X79251200Y-123861400D02*
X66415200Y-123861400D01*
X81570200Y-119901400D02*
X74273200Y-119901400D01*
X78391200Y-124621400D02*
X67275200Y-124621400D01*
X81896200Y-117980400D02*
X63770200Y-117980400D01*
X80645200Y-122061400D02*
X74273200Y-122061400D01*
X71393200Y-119941400D02*
X64108200Y-119941400D01*
X71393200Y-121501400D02*
X64716200Y-121501400D01*
X71393200Y-121701400D02*
X64819200Y-121701400D01*
X81834200Y-118621400D02*
X63832200Y-118621400D01*
X81906200Y-117780400D02*
X63760200Y-117780400D01*
X80394200Y-122461400D02*
X74273200Y-122461400D01*
X71393200Y-120301400D02*
X64219200Y-120301400D01*
X79045200Y-124061400D02*
X66621200Y-124061400D01*
X80473200Y-122341400D02*
X74273200Y-122341400D01*
X77453200Y-125261400D02*
X68213200Y-125261400D01*
X80782200Y-121821400D02*
X74273200Y-121821400D01*
X77948200Y-107660960D02*
X77948200Y-109460960D01*
X78871200Y-124221400D02*
X66795200Y-124221400D01*
X71393200Y-122541400D02*
X65325200Y-122541400D01*
X79129200Y-123981400D02*
X66537200Y-123981400D01*
X81726200Y-119261400D02*
X63940200Y-119261400D01*
X71393200Y-122381400D02*
X65219200Y-122381400D01*
X71393200Y-120941400D02*
X64459200Y-120941400D01*
X71393200Y-121621400D02*
X64777200Y-121621400D01*
X81844200Y-118541400D02*
X63822200Y-118541400D01*
X81603200Y-119781400D02*
X74273200Y-119781400D01*
X71393200Y-121541400D02*
X64736200Y-121541400D01*
X71393200Y-120461400D02*
X64274200Y-120461400D01*
X81406200Y-120421400D02*
X74273200Y-120421400D01*
X81750200Y-119141400D02*
X63916200Y-119141400D01*
X71393200Y-121741400D02*
X64841200Y-121741400D01*
X81644200Y-119621400D02*
X64022200Y-119621400D01*
X81634200Y-119661400D02*
X64032200Y-119661400D01*
X71393200Y-120901400D02*
X64443200Y-120901400D01*
X80970200Y-121461400D02*
X74273200Y-121461400D01*
X81911200Y-117620400D02*
X63755200Y-117620400D01*
X81138200Y-121101400D02*
X74273200Y-121101400D01*
X71393200Y-121821400D02*
X64884200Y-121821400D01*
X81511200Y-120101400D02*
X74273200Y-120101400D01*
X71393200Y-120261400D02*
X64206200Y-120261400D01*
X79832200Y-123221400D02*
X65834200Y-123221400D01*
X71393200Y-121981400D02*
X64974200Y-121981400D01*
X79731200Y-123341400D02*
X65935200Y-123341400D01*
X71393200Y-121061400D02*
X64510200Y-121061400D01*
X81875200Y-118261400D02*
X63791200Y-118261400D01*
X81624200Y-119701400D02*
X64042200Y-119701400D01*
X80172200Y-122781400D02*
X65494200Y-122781400D01*
X81793200Y-118901400D02*
X63873200Y-118901400D01*
X71393200Y-122061400D02*
X65021200Y-122061400D01*
X71393200Y-119741400D02*
X64053200Y-119741400D01*
X81829200Y-118661400D02*
X63837200Y-118661400D01*
X80868200Y-121661400D02*
X74273200Y-121661400D01*
X75713200Y-126060400D02*
X69953200Y-126060400D01*
X78687200Y-124381400D02*
X66979200Y-124381400D01*
X80341200Y-122541400D02*
X74273200Y-122541400D01*
X81913200Y-117540400D02*
X63753200Y-117540400D01*
X80909200Y-121581400D02*
X74273200Y-121581400D01*
X77774200Y-125061400D02*
X67892200Y-125061400D01*
X71393200Y-119861400D02*
X64085200Y-119861400D01*
X80889200Y-121621400D02*
X74273200Y-121621400D01*
X81190200Y-120981400D02*
X74273200Y-120981400D01*
X78542200Y-124501400D02*
X67124200Y-124501400D01*
X81888200Y-118100400D02*
X63778200Y-118100400D01*
X81908200Y-117740400D02*
X63758200Y-117740400D01*
X81558200Y-119941400D02*
X74273200Y-119941400D01*
X76345200Y-125820400D02*
X69321200Y-125820400D01*
X80573200Y-122181400D02*
X74273200Y-122181400D01*
X71393200Y-122421400D02*
X65245200Y-122421400D01*
X78826200Y-124261400D02*
X66840200Y-124261400D01*
X81871200Y-118301400D02*
X63795200Y-118301400D01*
X74872200Y-126300400D02*
X70794200Y-126300400D01*
X78339200Y-124661400D02*
X67327200Y-124661400D01*
X78959200Y-124141400D02*
X66707200Y-124141400D01*
X77098200Y-125461400D02*
X68568200Y-125461400D01*
X71393200Y-120341400D02*
X64233200Y-120341400D01*
X71393200Y-122301400D02*
X65168200Y-122301400D01*
X71393200Y-120741400D02*
X64378200Y-120741400D01*
X80498200Y-122301400D02*
X74273200Y-122301400D01*
X76785200Y-125620400D02*
X68881200Y-125620400D01*
X71393200Y-121581400D02*
X64757200Y-121581400D01*
X71393200Y-120421400D02*
X64260200Y-120421400D01*
X81009200Y-121381400D02*
X74273200Y-121381400D01*
X81319200Y-120661400D02*
X74273200Y-120661400D01*
X81849200Y-118501400D02*
X63817200Y-118501400D01*
X81363200Y-120541400D02*
X74273200Y-120541400D01*
X78639200Y-124421400D02*
X67027200Y-124421400D01*
X79864200Y-123181400D02*
X65802200Y-123181400D01*
X71393200Y-121381400D02*
X64657200Y-121381400D01*
X81256200Y-120821400D02*
X74273200Y-120821400D01*
X78287200Y-124701400D02*
X67379200Y-124701400D01*
X79992200Y-123021400D02*
X65674200Y-123021400D01*
X80083200Y-122901400D02*
X65583200Y-122901400D01*
X80804200Y-121781400D02*
X74273200Y-121781400D01*
X80597200Y-122141400D02*
X74273200Y-122141400D01*
X81120200Y-121141400D02*
X74273200Y-121141400D01*
X71393200Y-120861400D02*
X64426200Y-120861400D01*
X80368200Y-122501400D02*
X74273200Y-122501400D01*
X81691200Y-119421400D02*
X63975200Y-119421400D01*
X81894200Y-118020400D02*
X63772200Y-118020400D01*
X75592200Y-126100400D02*
X70074200Y-126100400D01*
X81805200Y-118821400D02*
X63861200Y-118821400D01*
X71393200Y-120541400D02*
X64303200Y-120541400D01*
X78915200Y-124181400D02*
X66751200Y-124181400D01*
X71393200Y-121261400D02*
X64600200Y-121261400D01*
X71393200Y-120501400D02*
X64288200Y-120501400D01*
X76866200Y-125581400D02*
X68800200Y-125581400D01*
X79369200Y-123741400D02*
X66297200Y-123741400D01*
X79445200Y-123661400D02*
X66221200Y-123661400D01*
X81854200Y-118461400D02*
X63812200Y-118461400D01*
X71393200Y-120821400D02*
X64410200Y-120821400D01*
X79929200Y-123101400D02*
X65737200Y-123101400D01*
X81817200Y-118741400D02*
X63849200Y-118741400D01*
X81910200Y-117660400D02*
X63756200Y-117660400D01*
X81084200Y-121221400D02*
X74273200Y-121221400D01*
X81757200Y-119101400D02*
X63909200Y-119101400D01*
X76702200Y-125660400D02*
X68964200Y-125660400D01*
X81839200Y-118581400D02*
X63827200Y-118581400D01*
X81303200Y-120701400D02*
X74273200Y-120701400D01*
X75829200Y-126020400D02*
X69837200Y-126020400D01*
X71393200Y-121221400D02*
X64582200Y-121221400D01*
X75331200Y-126180400D02*
X70335200Y-126180400D01*
X80825200Y-121741400D02*
X74273200Y-121741400D01*
X78734200Y-124341400D02*
X66932200Y-124341400D01*
X79407200Y-123701400D02*
X66259200Y-123701400D01*
X80313200Y-122581400D02*
X74273200Y-122581400D01*
X75036200Y-126260400D02*
X70630200Y-126260400D01*
X79291200Y-123821400D02*
X66375200Y-123821400D01*
X81899200Y-117940400D02*
X63767200Y-117940400D01*
X77023200Y-125501400D02*
X68643200Y-125501400D01*
X81734200Y-119221400D02*
X63932200Y-119221400D01*
X81066200Y-121261400D02*
X74273200Y-121261400D01*
X77895200Y-124981400D02*
X67771200Y-124981400D01*
X80950200Y-121501400D02*
X74273200Y-121501400D01*
X80930200Y-121541400D02*
X74273200Y-121541400D01*
X71393200Y-120381400D02*
X64246200Y-120381400D01*
X71393200Y-120101400D02*
X64155200Y-120101400D01*
X77953200Y-124941400D02*
X67713200Y-124941400D01*
X79330200Y-123781400D02*
X66336200Y-123781400D01*
X76150200Y-125900400D02*
X69516200Y-125900400D01*
X74268200Y-126420400D02*
X71398200Y-126420400D01*
X80668200Y-122021400D02*
X74273200Y-122021400D01*
X81709200Y-119341400D02*
X63957200Y-119341400D01*
X78179200Y-124781400D02*
X67487200Y-124781400D01*
X81882200Y-118181400D02*
X63784200Y-118181400D01*
X81028200Y-121341400D02*
X74273200Y-121341400D01*
X71393200Y-120021400D02*
X64131200Y-120021400D01*
X81913200Y-117460400D02*
X63753200Y-117460400D01*
X71393200Y-122221400D02*
X65118200Y-122221400D01*
X81547200Y-119981400D02*
X74273200Y-119981400D01*
X71393200Y-119821400D02*
X64074200Y-119821400D01*
X76529200Y-125740400D02*
X69137200Y-125740400D01*
X80143200Y-122821400D02*
X65523200Y-122821400D01*
X81799200Y-118861400D02*
X63867200Y-118861400D01*
X71393200Y-122181400D02*
X65093200Y-122181400D01*
X80053200Y-122941400D02*
X65613200Y-122941400D01*
X81288200Y-120741400D02*
X74273200Y-120741400D01*
X78442200Y-124581400D02*
X67224200Y-124581400D01*
X81349200Y-120581400D02*
X74273200Y-120581400D01*
X71393200Y-122021400D02*
X64998200Y-122021400D01*
X81447200Y-120301400D02*
X74273200Y-120301400D01*
X79211200Y-123901400D02*
X66455200Y-123901400D01*
X77172200Y-125421400D02*
X68494200Y-125421400D01*
X71393200Y-121901400D02*
X64929200Y-121901400D01*
X71393200Y-120221400D02*
X64193200Y-120221400D01*
X71393200Y-121661400D02*
X64798200Y-121661400D01*
X80201200Y-122741400D02*
X65465200Y-122741400D01*
X71393200Y-121861400D02*
X64906200Y-121861400D01*
X76249200Y-125860400D02*
X69417200Y-125860400D01*
X81592200Y-119821400D02*
X74273200Y-119821400D01*
X71393200Y-122101400D02*
X65045200Y-122101400D01*
X71393200Y-121181400D02*
X64564200Y-121181400D01*
X79170200Y-123941400D02*
X66496200Y-123941400D01*
X77835200Y-125021400D02*
X67831200Y-125021400D01*
X80113200Y-122861400D02*
X65553200Y-122861400D01*
X79662200Y-123421400D02*
X66004200Y-123421400D01*
X79897200Y-123141400D02*
X65769200Y-123141400D01*
X71393200Y-122461400D02*
X65272200Y-122461400D01*
X76617200Y-125700400D02*
X69049200Y-125700400D01*
X75465200Y-126140400D02*
X70201200Y-126140400D01*
X77315200Y-125341400D02*
X68351200Y-125341400D01*
X78233200Y-124741400D02*
X67433200Y-124741400D01*
X80760200Y-121861400D02*
X74273200Y-121861400D01*
X81891200Y-118060400D02*
X63775200Y-118060400D01*
X81223200Y-120901400D02*
X74273200Y-120901400D01*
X79003200Y-124101400D02*
X66663200Y-124101400D01*
X80421200Y-122421400D02*
X74273200Y-122421400D01*
X79627200Y-123461400D02*
X66039200Y-123461400D01*
X71393200Y-120661400D02*
X64347200Y-120661400D01*
X79697200Y-123381400D02*
X65969200Y-123381400D01*
X77649200Y-125141400D02*
X68017200Y-125141400D01*
X77712200Y-125101400D02*
X67954200Y-125101400D01*
X80447200Y-122381400D02*
X74273200Y-122381400D01*
X80023200Y-122981400D02*
X65643200Y-122981400D01*
X81823200Y-118701400D02*
X63843200Y-118701400D01*
X81523200Y-120061400D02*
X74273200Y-120061400D01*
X80230200Y-122701400D02*
X65436200Y-122701400D01*
X81240200Y-120861400D02*
X74273200Y-120861400D01*
X81420200Y-120381400D02*
X74273200Y-120381400D01*
X71393200Y-121101400D02*
X64528200Y-121101400D01*
X81613200Y-119741400D02*
X74273200Y-119741400D01*
X71393200Y-120781400D02*
X64394200Y-120781400D01*
X81765200Y-119061400D02*
X63901200Y-119061400D01*
X75188200Y-126220400D02*
X70478200Y-126220400D01*
X71393200Y-121461400D02*
X64696200Y-121461400D01*
X76438200Y-125780400D02*
X69228200Y-125780400D01*
X77519200Y-125221400D02*
X68147200Y-125221400D01*
X79555200Y-123541400D02*
X66111200Y-123541400D01*
X81953200Y-117420400D02*
G75*
G03*
X81953200Y-117420400I-9120000J0D01*
G01*
%TO.C,G1*%
G36*
X243691765Y-145230405D02*
G01*
X243626348Y-145596350D01*
X243573952Y-145899080D01*
X243541048Y-146100612D01*
X243533060Y-146161738D01*
X243449343Y-146166752D01*
X243202654Y-146171662D01*
X242799356Y-146176453D01*
X242245810Y-146181110D01*
X241548379Y-146185618D01*
X240713424Y-146189962D01*
X239747307Y-146194127D01*
X238656391Y-146198098D01*
X237447037Y-146201859D01*
X236125607Y-146205397D01*
X234698462Y-146208695D01*
X233171966Y-146211740D01*
X231552480Y-146214515D01*
X229846366Y-146217006D01*
X228059985Y-146219197D01*
X226199700Y-146221074D01*
X224271873Y-146222622D01*
X222282865Y-146223826D01*
X220239039Y-146224670D01*
X218146756Y-146225140D01*
X216650000Y-146225238D01*
X214527455Y-146225040D01*
X212448893Y-146224458D01*
X210420676Y-146223505D01*
X208449166Y-146222198D01*
X206540725Y-146220551D01*
X204701715Y-146218579D01*
X202938498Y-146216297D01*
X201257436Y-146213720D01*
X199664891Y-146210863D01*
X198167224Y-146207742D01*
X196770798Y-146204371D01*
X195481974Y-146200765D01*
X194307115Y-146196940D01*
X193252582Y-146192910D01*
X192324738Y-146188690D01*
X191529944Y-146184296D01*
X190874562Y-146179742D01*
X190364955Y-146175044D01*
X190007483Y-146170216D01*
X189808510Y-146165273D01*
X189766940Y-146161738D01*
X189752087Y-146056635D01*
X189713080Y-145822974D01*
X189656390Y-145498738D01*
X189608235Y-145230405D01*
X189450923Y-144362571D01*
X243849077Y-144362571D01*
X243691765Y-145230405D01*
G37*
G36*
X214723331Y-152761896D02*
G01*
X216650000Y-152761923D01*
X218860267Y-152761890D01*
X220906541Y-152761873D01*
X222794161Y-152761994D01*
X224528468Y-152762375D01*
X226114803Y-152763138D01*
X227558504Y-152764406D01*
X228864912Y-152766301D01*
X230039368Y-152768944D01*
X231087211Y-152772459D01*
X232013781Y-152776968D01*
X232824419Y-152782591D01*
X233524464Y-152789453D01*
X234119257Y-152797675D01*
X234614137Y-152807379D01*
X235014445Y-152818687D01*
X235325521Y-152831722D01*
X235552704Y-152846605D01*
X235701335Y-152863460D01*
X235776755Y-152882408D01*
X235784302Y-152903571D01*
X235729317Y-152927072D01*
X235617141Y-152953033D01*
X235453113Y-152981576D01*
X235242573Y-153012823D01*
X234990862Y-153046897D01*
X234703318Y-153083919D01*
X234385284Y-153124012D01*
X234091334Y-153161057D01*
X233369539Y-153247702D01*
X232663387Y-153321771D01*
X231944253Y-153385226D01*
X231183510Y-153440031D01*
X230352533Y-153488146D01*
X229422697Y-153531535D01*
X228365376Y-153572160D01*
X227826000Y-153590535D01*
X227350761Y-153602879D01*
X226721399Y-153614005D01*
X225953117Y-153623917D01*
X225061122Y-153632618D01*
X224060618Y-153640114D01*
X222966810Y-153646408D01*
X221794904Y-153651505D01*
X220560105Y-153655409D01*
X219277617Y-153658123D01*
X217962646Y-153659653D01*
X216630396Y-153660001D01*
X215296074Y-153659174D01*
X213974883Y-153657174D01*
X212682029Y-153654006D01*
X211432717Y-153649674D01*
X210242152Y-153644182D01*
X209125540Y-153637534D01*
X208098084Y-153629735D01*
X207174991Y-153620789D01*
X206371465Y-153610699D01*
X205702711Y-153599471D01*
X205183935Y-153587108D01*
X205093000Y-153584287D01*
X203785409Y-153534441D01*
X202611927Y-153473934D01*
X201537524Y-153400248D01*
X200527172Y-153310868D01*
X199545842Y-153203279D01*
X199208667Y-153161606D01*
X198869196Y-153118707D01*
X198555518Y-153078989D01*
X198272977Y-153042330D01*
X198026914Y-153008608D01*
X197822672Y-152977699D01*
X197665594Y-152949483D01*
X197561022Y-152923836D01*
X197514298Y-152900635D01*
X197530766Y-152879759D01*
X197615767Y-152861085D01*
X197774644Y-152844491D01*
X198012741Y-152829853D01*
X198335398Y-152817050D01*
X198747959Y-152805960D01*
X199255766Y-152796459D01*
X199864162Y-152788426D01*
X200578489Y-152781738D01*
X201404090Y-152776272D01*
X202346307Y-152771907D01*
X203410483Y-152768519D01*
X204601960Y-152765986D01*
X205926081Y-152764187D01*
X207388189Y-152762997D01*
X208993625Y-152762296D01*
X210747732Y-152761960D01*
X212655854Y-152761868D01*
X214723331Y-152761896D01*
G37*
G36*
X241179914Y-111847623D02*
G01*
X241711334Y-112352674D01*
X191588667Y-112352674D01*
X192120087Y-111847623D01*
X192651506Y-111342571D01*
X240648494Y-111342571D01*
X241179914Y-111847623D01*
G37*
G36*
X189057223Y-135630734D02*
G01*
X189054218Y-134664622D01*
X189051999Y-133652797D01*
X189050564Y-132608995D01*
X189049914Y-131546952D01*
X189050049Y-130480403D01*
X189050969Y-129423084D01*
X189052674Y-128388730D01*
X189055163Y-127391077D01*
X189058437Y-126443859D01*
X189062496Y-125560813D01*
X189067340Y-124755674D01*
X189069685Y-124458376D01*
X189072969Y-124042178D01*
X189079382Y-123434060D01*
X189086580Y-122945055D01*
X189094563Y-122588899D01*
X189103331Y-122379327D01*
X189109510Y-122328071D01*
X189120841Y-122314257D01*
X189146729Y-122301326D01*
X189192589Y-122289251D01*
X189263834Y-122278001D01*
X189365881Y-122267548D01*
X189504144Y-122257862D01*
X189684037Y-122248915D01*
X189910976Y-122240677D01*
X190190375Y-122233119D01*
X190527650Y-122226212D01*
X190928215Y-122219927D01*
X191397484Y-122214234D01*
X191940873Y-122209105D01*
X192563797Y-122204511D01*
X193271670Y-122200422D01*
X194069907Y-122196808D01*
X194963924Y-122193642D01*
X195959134Y-122190894D01*
X197060953Y-122188535D01*
X198274795Y-122186535D01*
X199606076Y-122184866D01*
X201060210Y-122183498D01*
X202642611Y-122182402D01*
X204358696Y-122181550D01*
X206213879Y-122180911D01*
X208213574Y-122180458D01*
X210363196Y-122180160D01*
X212668160Y-122179988D01*
X215133882Y-122179914D01*
X216650000Y-122179905D01*
X219212085Y-122179935D01*
X221610251Y-122180046D01*
X223849913Y-122180266D01*
X225936486Y-122180626D01*
X227875386Y-122181153D01*
X229672026Y-122181877D01*
X231331822Y-122182827D01*
X232860189Y-122184032D01*
X234262540Y-122185522D01*
X235544292Y-122187325D01*
X236710859Y-122189471D01*
X237767656Y-122191989D01*
X238720097Y-122194907D01*
X239573598Y-122198256D01*
X240333573Y-122202064D01*
X241005437Y-122206360D01*
X241594606Y-122211173D01*
X242106493Y-122216533D01*
X242546513Y-122222469D01*
X242920083Y-122229009D01*
X243232615Y-122236184D01*
X243489526Y-122244021D01*
X243696229Y-122252551D01*
X243858140Y-122261802D01*
X243980674Y-122271803D01*
X244069246Y-122282584D01*
X244129269Y-122294174D01*
X244166160Y-122306602D01*
X244185333Y-122319896D01*
X244190491Y-122328071D01*
X244199773Y-122434009D01*
X244208271Y-122695542D01*
X244215984Y-123098937D01*
X244222913Y-123630456D01*
X244229056Y-124276365D01*
X244234415Y-125022928D01*
X244238989Y-125856410D01*
X244242778Y-126763075D01*
X244245782Y-127729187D01*
X244248001Y-128741012D01*
X244249436Y-129784814D01*
X244250086Y-130846857D01*
X244249951Y-131913406D01*
X244249031Y-132970725D01*
X244247327Y-134005079D01*
X244244837Y-135002732D01*
X244241563Y-135949950D01*
X244237504Y-136832996D01*
X244232660Y-137638135D01*
X244227032Y-138351631D01*
X244220618Y-138959749D01*
X244213420Y-139448754D01*
X244205437Y-139804910D01*
X244196670Y-140014482D01*
X244190491Y-140065738D01*
X244179159Y-140079552D01*
X244153271Y-140092483D01*
X244107412Y-140104558D01*
X244036166Y-140115808D01*
X243934119Y-140126261D01*
X243795857Y-140135947D01*
X243615963Y-140144894D01*
X243389024Y-140153132D01*
X243109625Y-140160690D01*
X242772350Y-140167597D01*
X242371786Y-140173882D01*
X241902516Y-140179575D01*
X241359127Y-140184704D01*
X240736203Y-140189298D01*
X240028330Y-140193387D01*
X239230093Y-140197001D01*
X238336077Y-140200167D01*
X237340867Y-140202915D01*
X236239048Y-140205274D01*
X235025205Y-140207274D01*
X233693925Y-140208943D01*
X232239791Y-140210311D01*
X230657389Y-140211407D01*
X228941304Y-140212259D01*
X227086122Y-140212898D01*
X225086427Y-140213351D01*
X222936804Y-140213649D01*
X220631840Y-140213821D01*
X218166119Y-140213895D01*
X216650000Y-140213905D01*
X214087916Y-140213874D01*
X211689750Y-140213763D01*
X209450087Y-140213543D01*
X207363514Y-140213183D01*
X205424615Y-140212656D01*
X203627974Y-140211932D01*
X201968178Y-140210982D01*
X200439812Y-140209777D01*
X199037460Y-140208287D01*
X197755708Y-140206484D01*
X196589141Y-140204338D01*
X195532345Y-140201820D01*
X194579903Y-140198902D01*
X193726402Y-140195553D01*
X192966427Y-140191745D01*
X192294563Y-140187449D01*
X191705395Y-140182636D01*
X191193508Y-140177276D01*
X190753487Y-140171340D01*
X190379918Y-140164800D01*
X190067385Y-140157625D01*
X189810475Y-140149788D01*
X189603771Y-140141258D01*
X189441860Y-140132007D01*
X189319326Y-140122006D01*
X189230755Y-140111225D01*
X189170731Y-140099635D01*
X189133840Y-140087207D01*
X189114668Y-140073913D01*
X189109510Y-140065738D01*
X189100227Y-139959800D01*
X189091729Y-139698267D01*
X189084016Y-139294872D01*
X189077088Y-138763353D01*
X189070944Y-138117444D01*
X189065586Y-137370881D01*
X189064972Y-137259028D01*
X217877667Y-137259028D01*
X222259167Y-137233451D01*
X223232626Y-137227630D01*
X224051850Y-137222040D01*
X224731935Y-137216002D01*
X225287978Y-137208835D01*
X225735075Y-137199861D01*
X226088321Y-137188401D01*
X226362814Y-137173775D01*
X226573648Y-137155304D01*
X226735921Y-137132309D01*
X226864728Y-137104111D01*
X226975165Y-137070030D01*
X227082329Y-137029387D01*
X227118595Y-137014804D01*
X227776888Y-136676019D01*
X228298019Y-136244231D01*
X228685387Y-135714009D01*
X228942393Y-135079923D01*
X229072436Y-134336540D01*
X229091059Y-133863905D01*
X229083062Y-133449573D01*
X229054447Y-133146125D01*
X228995073Y-132895434D01*
X228894799Y-132639374D01*
X228866575Y-132577268D01*
X228506737Y-131996075D01*
X228008322Y-131496064D01*
X227389705Y-131094854D01*
X227248821Y-131025996D01*
X226640667Y-130743901D01*
X226893395Y-130647434D01*
X227494244Y-130367880D01*
X227957783Y-130030792D01*
X228312947Y-129610835D01*
X228531779Y-129212875D01*
X228679695Y-128746294D01*
X228754633Y-128188064D01*
X228754809Y-127600180D01*
X228678439Y-127044632D01*
X228602032Y-126772078D01*
X228307808Y-126165949D01*
X227878123Y-125606078D01*
X227346453Y-125127107D01*
X226746272Y-124763677D01*
X226598334Y-124698548D01*
X226488122Y-124655063D01*
X226378379Y-124618651D01*
X226253481Y-124588580D01*
X226097809Y-124564118D01*
X225895739Y-124544533D01*
X225631650Y-124529092D01*
X225289922Y-124517064D01*
X224854931Y-124507716D01*
X224311057Y-124500317D01*
X223642677Y-124494135D01*
X222834171Y-124488437D01*
X222005167Y-124483307D01*
X219124145Y-124465905D01*
X230147986Y-124465905D01*
X230172326Y-129484330D01*
X230196667Y-134502756D01*
X230473360Y-135064653D01*
X230825945Y-135629071D01*
X231302879Y-136171421D01*
X231860767Y-136646487D01*
X232215787Y-136880119D01*
X232714762Y-137131362D01*
X233315419Y-137370554D01*
X233950479Y-137574392D01*
X234552664Y-137719574D01*
X234726334Y-137749671D01*
X235249199Y-137797689D01*
X235871368Y-137805190D01*
X236528407Y-137774837D01*
X237155887Y-137709290D01*
X237605000Y-137630745D01*
X237961673Y-137530562D01*
X238399396Y-137375838D01*
X238849861Y-137191813D01*
X239086667Y-137083232D01*
X239879397Y-136628156D01*
X240523966Y-136096593D01*
X241025671Y-135483639D01*
X241263934Y-135067442D01*
X241542000Y-134502756D01*
X241566341Y-129484330D01*
X241590681Y-124465905D01*
X239388825Y-124465905D01*
X237186969Y-124465904D01*
X237163151Y-129328102D01*
X237157978Y-130357616D01*
X237152996Y-131231344D01*
X237147672Y-131962833D01*
X237141471Y-132565628D01*
X237133862Y-133053274D01*
X237124309Y-133439320D01*
X237112280Y-133737309D01*
X237097241Y-133960789D01*
X237078658Y-134123305D01*
X237055997Y-134238404D01*
X237028726Y-134319631D01*
X236996310Y-134380532D01*
X236962215Y-134429269D01*
X236608407Y-134788570D01*
X236210604Y-134992875D01*
X235793005Y-135042185D01*
X235379806Y-134936498D01*
X234995206Y-134675817D01*
X234776452Y-134429269D01*
X234738938Y-134375082D01*
X234707050Y-134312787D01*
X234680254Y-134228839D01*
X234658017Y-134109692D01*
X234639804Y-133941800D01*
X234625083Y-133711616D01*
X234613321Y-133405595D01*
X234603982Y-133010190D01*
X234596534Y-132511857D01*
X234590443Y-131897047D01*
X234585176Y-131152217D01*
X234580199Y-130263819D01*
X234575516Y-129328102D01*
X234551698Y-124465905D01*
X230147986Y-124465905D01*
X219124145Y-124465905D01*
X217877667Y-124458376D01*
X217877667Y-137259028D01*
X189064972Y-137259028D01*
X189064926Y-137250571D01*
X191715667Y-137250571D01*
X195779667Y-137250571D01*
X195786351Y-133631071D01*
X195788383Y-132870458D01*
X195791475Y-132168021D01*
X195795462Y-131540559D01*
X195800182Y-131004872D01*
X195805469Y-130577760D01*
X195811161Y-130276024D01*
X195817094Y-130116461D01*
X195820801Y-130096238D01*
X195854807Y-130204068D01*
X195929086Y-130441923D01*
X196033758Y-130778091D01*
X196158941Y-131180863D01*
X196203353Y-131323905D01*
X196302259Y-131632401D01*
X196445206Y-132064501D01*
X196622787Y-132592919D01*
X196825597Y-133190372D01*
X197044228Y-133829573D01*
X197269276Y-134483237D01*
X197491333Y-135124081D01*
X197700993Y-135724817D01*
X197888851Y-136258163D01*
X198045500Y-136696832D01*
X198161534Y-137013540D01*
X198195419Y-137102405D01*
X198221795Y-137143263D01*
X198277244Y-137175875D01*
X198379153Y-137201163D01*
X198544907Y-137220044D01*
X198791894Y-137233441D01*
X199137500Y-137242271D01*
X199599111Y-137247456D01*
X200194115Y-137249916D01*
X200939898Y-137250569D01*
X200995725Y-137250571D01*
X203738334Y-137250571D01*
X203738334Y-137144738D01*
X204287940Y-137144738D01*
X204311300Y-137176581D01*
X204415416Y-137201775D01*
X204614943Y-137220965D01*
X204924536Y-137234794D01*
X205358850Y-137243909D01*
X205932541Y-137248952D01*
X206660263Y-137250569D01*
X206694901Y-137250571D01*
X209138155Y-137250571D01*
X209185022Y-136975405D01*
X209216574Y-136779751D01*
X209265567Y-136463923D01*
X209324721Y-136075267D01*
X209373867Y-135747738D01*
X209515844Y-134795238D01*
X211930823Y-134795238D01*
X212072800Y-135747738D01*
X212134831Y-136160456D01*
X212192458Y-136537764D01*
X212238398Y-136832316D01*
X212261645Y-136975405D01*
X212308512Y-137250571D01*
X214751766Y-137250571D01*
X215486374Y-137249086D01*
X216066327Y-137244202D01*
X216506279Y-137235274D01*
X216820886Y-137221658D01*
X217024802Y-137202710D01*
X217132683Y-137177785D01*
X217159183Y-137146238D01*
X217158727Y-137144738D01*
X217132722Y-137052212D01*
X217066687Y-136811735D01*
X216964828Y-136438810D01*
X216831349Y-135948939D01*
X216670453Y-135357626D01*
X216486346Y-134680374D01*
X216283232Y-133932685D01*
X216065315Y-133130062D01*
X215836799Y-132288008D01*
X215601890Y-131422026D01*
X215364790Y-130547619D01*
X215129705Y-129680289D01*
X214900839Y-128835540D01*
X214682396Y-128028875D01*
X214478581Y-127275796D01*
X214293598Y-126591806D01*
X214131651Y-125992408D01*
X213996945Y-125493105D01*
X213893684Y-125109400D01*
X213826073Y-124856795D01*
X213817825Y-124825738D01*
X213722473Y-124465905D01*
X207724194Y-124465905D01*
X207628842Y-124825738D01*
X207568270Y-125052450D01*
X207471272Y-125413125D01*
X207342054Y-125892258D01*
X207184819Y-126474348D01*
X207003771Y-127143891D01*
X206803115Y-127885385D01*
X206587056Y-128683327D01*
X206359797Y-129522213D01*
X206125543Y-130386542D01*
X205888499Y-131260809D01*
X205652869Y-132129513D01*
X205422857Y-132977150D01*
X205202667Y-133788217D01*
X204996504Y-134547212D01*
X204808573Y-135238632D01*
X204643077Y-135846973D01*
X204504221Y-136356733D01*
X204396209Y-136752410D01*
X204323246Y-137018500D01*
X204289536Y-137139500D01*
X204287940Y-137144738D01*
X203738334Y-137144738D01*
X203738334Y-124465905D01*
X199843667Y-124465905D01*
X199841487Y-131704905D01*
X199470276Y-130604238D01*
X199315675Y-130156402D01*
X199112005Y-129582323D01*
X198870944Y-128913815D01*
X198604170Y-128182697D01*
X198323362Y-127420786D01*
X198040201Y-126659897D01*
X197766364Y-125931848D01*
X197513530Y-125268456D01*
X197473480Y-125164405D01*
X197204177Y-124465905D01*
X191715667Y-124465905D01*
X191715667Y-137250571D01*
X189064926Y-137250571D01*
X189061012Y-136537399D01*
X189057223Y-135630734D01*
G37*
G36*
X243020657Y-147756873D02*
G01*
X242897474Y-148054863D01*
X242774996Y-148328632D01*
X242723385Y-148434206D01*
X242595985Y-148680571D01*
X190704015Y-148680571D01*
X190576615Y-148434206D01*
X190470178Y-148209007D01*
X190342581Y-147912982D01*
X190279343Y-147756873D01*
X190109471Y-147325905D01*
X243190529Y-147325905D01*
X243020657Y-147756873D01*
G37*
G36*
X241179914Y-150546186D02*
G01*
X240648494Y-151051238D01*
X192651506Y-151051238D01*
X192120087Y-150546186D01*
X191588667Y-150041135D01*
X241711334Y-150041135D01*
X241179914Y-150546186D01*
G37*
G36*
X244092426Y-141701662D02*
G01*
X244066837Y-142163264D01*
X244038391Y-142598223D01*
X244010351Y-142960918D01*
X243985981Y-143205729D01*
X243983371Y-143225662D01*
X243931984Y-143600571D01*
X189368017Y-143600571D01*
X189312704Y-143198405D01*
X189287375Y-142958302D01*
X189258645Y-142596860D01*
X189229947Y-142161933D01*
X189204712Y-141701377D01*
X189203403Y-141674405D01*
X189149415Y-140552571D01*
X244150094Y-140552571D01*
X244092426Y-141701662D01*
G37*
G36*
X222724834Y-127090888D02*
G01*
X223244080Y-127107776D01*
X223630147Y-127166660D01*
X223916683Y-127280526D01*
X224137338Y-127462356D01*
X224312791Y-127703631D01*
X224460272Y-128095895D01*
X224459807Y-128508490D01*
X224321871Y-128901949D01*
X224056940Y-129236804D01*
X223868607Y-129377029D01*
X223706780Y-129457423D01*
X223512628Y-129508147D01*
X223244517Y-129535337D01*
X222860811Y-129545128D01*
X222724834Y-129545588D01*
X221857000Y-129545905D01*
X221857000Y-127090571D01*
X222724834Y-127090888D01*
G37*
G36*
X243987296Y-119195405D02*
G01*
X244012625Y-119435507D01*
X244041355Y-119796949D01*
X244070054Y-120231876D01*
X244095289Y-120692432D01*
X244096597Y-120719405D01*
X244150585Y-121841238D01*
X189149415Y-121841238D01*
X189203403Y-120719405D01*
X189228327Y-120258831D01*
X189256916Y-119821061D01*
X189285739Y-119453949D01*
X189311365Y-119205352D01*
X189312704Y-119195405D01*
X189368017Y-118793238D01*
X243931984Y-118793238D01*
X243987296Y-119195405D01*
G37*
G36*
X242723385Y-113959603D02*
G01*
X242829822Y-114184802D01*
X242957420Y-114480827D01*
X243020657Y-114636936D01*
X243190529Y-115067905D01*
X190109471Y-115067905D01*
X190279343Y-114636936D01*
X190402527Y-114338946D01*
X190525004Y-114065177D01*
X190576615Y-113959603D01*
X190704015Y-113713238D01*
X242595985Y-113713238D01*
X242723385Y-113959603D01*
G37*
G36*
X210765626Y-127193859D02*
G01*
X210765667Y-127196009D01*
X210778244Y-127288537D01*
X210813922Y-127528233D01*
X210869618Y-127894967D01*
X210942249Y-128368609D01*
X211028735Y-128929030D01*
X211125993Y-129556101D01*
X211189000Y-129960867D01*
X211291607Y-130622961D01*
X211385248Y-131234550D01*
X211466810Y-131774733D01*
X211533182Y-132222606D01*
X211581252Y-132557268D01*
X211607909Y-132757816D01*
X211612334Y-132804651D01*
X211585686Y-132862999D01*
X211487423Y-132900953D01*
X211290062Y-132922467D01*
X210966124Y-132931495D01*
X210723334Y-132932571D01*
X210317835Y-132928737D01*
X210054069Y-132914598D01*
X209904556Y-132886199D01*
X209841813Y-132839587D01*
X209834334Y-132804651D01*
X209847078Y-132678596D01*
X209882788Y-132414782D01*
X209937683Y-132037071D01*
X210007981Y-131569328D01*
X210089897Y-131035414D01*
X210179652Y-130459193D01*
X210273461Y-129864528D01*
X210367543Y-129275282D01*
X210458115Y-128715319D01*
X210541395Y-128208500D01*
X210613601Y-127778689D01*
X210670950Y-127449750D01*
X210709660Y-127245544D01*
X210724563Y-127188119D01*
X210765626Y-127193859D01*
G37*
G36*
X218823415Y-116169973D02*
G01*
X220659947Y-116170412D01*
X222479584Y-116171112D01*
X224274566Y-116172074D01*
X226037134Y-116173297D01*
X227759527Y-116174782D01*
X229433987Y-116176529D01*
X231052754Y-116178537D01*
X232608069Y-116180806D01*
X234092171Y-116183337D01*
X235497302Y-116186130D01*
X236815701Y-116189184D01*
X238039610Y-116192500D01*
X239161269Y-116196078D01*
X240172918Y-116199917D01*
X241066798Y-116204017D01*
X241835150Y-116208379D01*
X242470213Y-116213003D01*
X242964228Y-116217888D01*
X243309436Y-116223034D01*
X243498077Y-116228443D01*
X243533060Y-116232071D01*
X243547913Y-116337174D01*
X243586921Y-116570835D01*
X243643611Y-116895071D01*
X243691765Y-117163405D01*
X243849077Y-118031238D01*
X189450923Y-118031238D01*
X189608235Y-117163405D01*
X189673652Y-116797459D01*
X189726049Y-116494729D01*
X189758953Y-116293197D01*
X189766940Y-116232071D01*
X189850439Y-116226494D01*
X190095511Y-116221179D01*
X190494397Y-116216125D01*
X191039338Y-116211332D01*
X191722574Y-116206802D01*
X192536345Y-116202532D01*
X193472893Y-116198525D01*
X194524456Y-116194779D01*
X195683277Y-116191294D01*
X196941595Y-116188071D01*
X198291651Y-116185109D01*
X199725686Y-116182410D01*
X201235939Y-116179971D01*
X202814652Y-116177794D01*
X204454065Y-116175879D01*
X206146417Y-116174225D01*
X207883951Y-116172833D01*
X209658906Y-116171703D01*
X211463522Y-116170834D01*
X213290041Y-116170226D01*
X215130702Y-116169880D01*
X216977747Y-116169796D01*
X218823415Y-116169973D01*
G37*
G36*
X222782428Y-132014914D02*
G01*
X223263421Y-132039194D01*
X223614210Y-132087533D01*
X223873693Y-132175110D01*
X224080766Y-132317109D01*
X224274327Y-132528709D01*
X224349435Y-132626511D01*
X224479391Y-132916236D01*
X224531812Y-133287323D01*
X224506700Y-133670593D01*
X224404053Y-133996867D01*
X224349435Y-134085298D01*
X224151099Y-134326157D01*
X223953482Y-134491860D01*
X223717687Y-134597587D01*
X223404817Y-134658521D01*
X222975975Y-134689843D01*
X222782428Y-134696895D01*
X221857000Y-134725553D01*
X221857000Y-131986256D01*
X222782428Y-132014914D01*
G37*
G36*
X218550161Y-108721091D02*
G01*
X220291363Y-108724567D01*
X221883965Y-108730732D01*
X223338330Y-108739892D01*
X224664818Y-108752350D01*
X225873789Y-108768412D01*
X226975605Y-108788382D01*
X227980626Y-108812564D01*
X228899214Y-108841263D01*
X229741729Y-108874784D01*
X230518532Y-108913431D01*
X231239985Y-108957510D01*
X231916446Y-109007323D01*
X232558279Y-109063177D01*
X233175843Y-109125376D01*
X233779500Y-109194224D01*
X234091334Y-109232752D01*
X234431328Y-109275585D01*
X234745425Y-109315242D01*
X235028286Y-109351845D01*
X235274569Y-109385516D01*
X235478934Y-109416379D01*
X235636042Y-109444553D01*
X235740553Y-109470163D01*
X235787126Y-109493331D01*
X235770422Y-109514177D01*
X235685100Y-109532826D01*
X235525820Y-109549398D01*
X235287242Y-109564016D01*
X234964027Y-109576802D01*
X234550833Y-109587879D01*
X234042322Y-109597369D01*
X233433152Y-109605393D01*
X232717984Y-109612074D01*
X231891478Y-109617535D01*
X230948294Y-109621897D01*
X229883091Y-109625283D01*
X228690530Y-109627815D01*
X227365270Y-109629615D01*
X225901972Y-109630805D01*
X224295295Y-109631508D01*
X222539899Y-109631845D01*
X220630445Y-109631939D01*
X218561592Y-109631913D01*
X216650000Y-109631886D01*
X214459464Y-109631774D01*
X212432482Y-109631415D01*
X210563273Y-109630775D01*
X208846058Y-109629821D01*
X207275057Y-109628517D01*
X205844490Y-109626830D01*
X204548578Y-109624726D01*
X203381539Y-109622170D01*
X202337596Y-109619129D01*
X201410967Y-109615569D01*
X200595874Y-109611455D01*
X199886535Y-109606754D01*
X199277173Y-109601431D01*
X198762005Y-109595452D01*
X198335254Y-109588783D01*
X197991138Y-109581391D01*
X197723879Y-109573240D01*
X197527696Y-109564298D01*
X197396809Y-109554529D01*
X197325439Y-109543900D01*
X197307807Y-109532377D01*
X197338131Y-109519925D01*
X197346000Y-109518078D01*
X197706394Y-109448997D01*
X198200797Y-109370886D01*
X198794410Y-109288051D01*
X199452436Y-109204799D01*
X200140076Y-109125437D01*
X200822531Y-109054272D01*
X201465003Y-108995610D01*
X201748667Y-108973181D01*
X202384862Y-108930615D01*
X203092703Y-108892442D01*
X203880817Y-108858517D01*
X204757834Y-108828693D01*
X205732382Y-108802823D01*
X206813089Y-108780761D01*
X208008585Y-108762360D01*
X209327497Y-108747473D01*
X210778455Y-108735955D01*
X212370087Y-108727657D01*
X214111022Y-108722434D01*
X216009887Y-108720140D01*
X216650000Y-108720000D01*
X218550161Y-108721091D01*
G37*
%TO.C,U6*%
X89683200Y-139700400D02*
X89683200Y-136100400D01*
X89671678Y-136061922D02*
G75*
G03*
X85233200Y-137900400I-1838478J-1838478D01*
G01*
X85233199Y-137900400D02*
G75*
G03*
X89671678Y-139738878I2600001J0D01*
G01*
%TO.C,R6*%
X100745800Y-90082200D02*
X101515800Y-90082200D01*
X101515800Y-88712200D02*
X101515800Y-91452200D01*
X108055800Y-88712200D02*
X101515800Y-88712200D01*
X108825800Y-90082200D02*
X108055800Y-90082200D01*
X101515800Y-91452200D02*
X108055800Y-91452200D01*
X108055800Y-91452200D02*
X108055800Y-88712200D01*
%TO.C,J3*%
X57627400Y-85334000D02*
X57627400Y-93014000D01*
X54967400Y-84064000D02*
X54967400Y-82734000D01*
X54967400Y-85334000D02*
X57627400Y-85334000D01*
X54967400Y-85334000D02*
X54967400Y-93014000D01*
X54967400Y-82734000D02*
X56297400Y-82734000D01*
X54967400Y-93014000D02*
X57627400Y-93014000D01*
%TO.C,C6*%
X83786800Y-55452000D02*
X81046800Y-55452000D01*
X81046800Y-50212000D02*
X81046800Y-55452000D01*
X83786800Y-50212000D02*
X83786800Y-55452000D01*
X83786800Y-50212000D02*
X81046800Y-50212000D01*
%TO.C,R3*%
X61203200Y-120020400D02*
X61203200Y-113480400D01*
X58463200Y-113480400D02*
X58463200Y-120020400D01*
X59833200Y-112710400D02*
X59833200Y-113480400D01*
X59833200Y-120790400D02*
X59833200Y-120020400D01*
X58463200Y-120020400D02*
X61203200Y-120020400D01*
X61203200Y-113480400D02*
X58463200Y-113480400D01*
%TD*%
M02*
