M48
; DRILL file {KiCad 6.0.2+dfsg-1} date Tue 30 May 2023 08:03:48 PM EDT
; FORMAT={-:-/ absolute / metric / decimal}
; #@! TF.CreationDate,2023-05-30T20:03:48-04:00
; #@! TF.GenerationSoftware,Kicad,Pcbnew,6.0.2+dfsg-1
; #@! TF.FileFunction,Plated,1,2,PTH
FMAT,2
METRIC
; #@! TA.AperFunction,Plated,PTH,ViaDrill
T1C0.400
; #@! TA.AperFunction,Plated,PTH,ComponentDrill
T2C0.750
; #@! TA.AperFunction,Plated,PTH,ComponentDrill
T3C0.800
; #@! TA.AperFunction,Plated,PTH,ComponentDrill
T4C1.000
; #@! TA.AperFunction,Plated,PTH,ComponentDrill
T5C1.100
; #@! TA.AperFunction,Plated,PTH,ComponentDrill
T6C1.200
; #@! TA.AperFunction,Plated,PTH,ComponentDrill
T7C1.300
; #@! TA.AperFunction,Plated,PTH,ComponentDrill
T8C1.600
%
G90
G05
T1
X220.421Y-68.936
X221.767Y-66.548
X221.92Y-65.354
X225.273Y-55.27
T2
X87.833Y-116.13
X87.833Y-117.4
X87.833Y-118.67
X87.833Y-136.63
X87.833Y-137.9
X87.833Y-139.17
T3
X59.833Y-111.67
X59.833Y-121.83
X59.833Y-133.51
X59.833Y-143.67
X82.417Y-51.582
X82.417Y-54.082
X87.035Y-49.037
X87.035Y-56.657
X89.575Y-49.037
X89.575Y-56.657
X92.115Y-49.037
X92.115Y-56.657
X94.655Y-49.037
X94.655Y-56.657
X97.195Y-49.037
X97.195Y-56.657
X99.693Y-98.059
X99.693Y-102.059
X99.706Y-90.082
X99.706Y-94.082
X99.735Y-49.037
X99.735Y-56.657
X102.275Y-49.037
X102.275Y-56.657
X102.567Y-153.059
X102.567Y-160.679
X105.107Y-153.059
X105.107Y-160.679
X106.115Y-47.777
X106.115Y-57.937
X107.647Y-153.059
X107.647Y-160.679
X109.853Y-98.059
X109.853Y-102.059
X109.866Y-90.082
X109.866Y-94.082
X110.187Y-153.059
X110.187Y-160.679
X110.885Y-164.059
X110.885Y-174.219
X112.727Y-153.059
X112.727Y-160.679
X113.546Y-94.424
X113.546Y-96.964
X113.546Y-99.504
X113.546Y-102.044
X114.885Y-164.059
X114.885Y-174.219
X115.267Y-153.059
X115.267Y-160.679
X116.202Y-89.681
X117.807Y-153.059
X117.807Y-160.679
X118.702Y-89.681
X118.885Y-164.059
X118.885Y-174.219
X120.347Y-153.059
X120.347Y-160.679
X121.166Y-94.424
X121.166Y-96.964
X121.166Y-99.504
X121.166Y-102.044
X122.885Y-164.059
X122.885Y-174.219
X122.887Y-153.059
X122.887Y-160.679
X138.164Y-80.901
X138.164Y-125.326
X140.664Y-80.901
X140.664Y-125.326
T4
X56.297Y-84.064
X56.297Y-86.604
X56.297Y-89.144
X56.297Y-91.684
X78.141Y-97.023
X78.141Y-99.563
X78.141Y-102.103
X95.841Y-169.268
X98.381Y-169.268
X100.921Y-169.268
X101.365Y-114.048
X103.461Y-169.268
X104.415Y-114.048
X106.001Y-169.268
X116.615Y-114.048
X119.665Y-114.048
X128.092Y-87.913
X130.632Y-87.913
X130.632Y-118.393
X133.172Y-87.913
X133.172Y-118.393
X135.712Y-87.913
X135.712Y-118.393
X138.252Y-118.393
X140.792Y-118.393
X196.508Y-58.448
X196.508Y-60.988
X199.048Y-58.448
X199.048Y-60.988
X201.588Y-58.448
X201.588Y-60.988
X204.128Y-58.448
X204.128Y-60.988
X206.668Y-58.448
X206.668Y-60.988
X209.208Y-58.448
X209.208Y-60.988
X211.748Y-58.448
X211.748Y-60.988
X214.288Y-58.448
X214.288Y-60.988
X216.828Y-58.448
X216.828Y-60.988
X219.368Y-58.448
X219.368Y-60.988
X221.908Y-58.448
X221.908Y-60.988
X224.448Y-58.448
X224.448Y-60.988
X226.988Y-58.448
X226.988Y-60.988
X229.528Y-58.448
X229.528Y-60.988
X232.068Y-58.448
X232.068Y-60.988
X234.608Y-58.448
X234.608Y-60.988
X237.148Y-58.448
X237.148Y-60.988
X239.688Y-58.448
X239.688Y-60.988
X242.228Y-58.448
X242.228Y-60.988
X244.768Y-58.448
X244.768Y-60.988
T5
X62.927Y-91.725
X73.087Y-91.725
X144.448Y-80.901
X144.448Y-91.061
T6
X72.833Y-113.67
X72.833Y-121.17
X72.833Y-134.17
X72.833Y-141.67
X87.819Y-90.988
X87.819Y-111.308
T7
X86.0Y-42.668
X88.5Y-45.168
X91.0Y-32.668
X93.5Y-42.668
X96.0Y-32.668
X98.5Y-45.168
X101.0Y-42.668
T8
X62.876Y-85.095
X78.116Y-85.095
X102.995Y-108.054
X118.235Y-108.054
T0
M30
